<?xml version="1.0" encoding="utf-8"?>
<!-- Generator: Adobe Illustrator 25.2.3, SVG Export Plug-In . SVG Version: 6.00 Build 0)  -->
<svg version="1.1" id="Layer_1" xmlns="http://www.w3.org/2000/svg" xmlns:xlink="http://www.w3.org/1999/xlink" x="0px" y="0px"
	 viewBox="0 0 512 512" style="enable-background:new 0 0 512 512;" xml:space="preserve">
<style type="text/css">
	.st0{fill:#2E2E42;}
	.st1{fill:#FFFFFF;}
</style>
<path class="st0" d="M256,8c137,0,248,111,248,248S393,504,256,504S8,393,8,256S119,8,256,8z"/>
<g>
	<path class="st1" d="M319.8,262.2l-83.6,84.1c-5.5,5.6-15,1.6-15-6.2v-51.9h-84.9c-4.8,0-8.8-4-8.8-8.8v-46.8c0-4.8,4-8.8,8.8-8.8
		h84.9v-51.9c0-7.8,9.4-11.8,15-6.2l83.6,84.1C323.2,253.3,323.2,258.8,319.8,262.2z"/>
	<path class="st1" d="M372.5,350h-12.9c-6.6,0-12-5.4-12-12V174c0-6.6,5.4-12,12-12h12.9c6.6,0,12,5.4,12,12V338
		C384.5,344.6,379.1,350,372.5,350z"/>
</g>
</svg>
