<svg xmlns="http://www.w3.org/2000/svg" viewBox="0 0 31.23 31.23"><defs><style>.cls-1,.cls-3{fill:none;}.cls-2{fill:#919191;}.cls-3{stroke:#2e2e42;stroke-linecap:round;stroke-linejoin:round;}</style></defs><g id="Layer_2" data-name="Layer 2"><g id="Layer_2-2" data-name="Layer 2"><rect class="cls-1" width="31.23" height="31.23" rx="1.97"/><path class="cls-2" d="M19,19.59A13.12,13.12,0,0,1,17.44,26H6.53a1.25,1.25,0,0,1-1.07-1.37l0-10.42a1.32,1.32,0,0,1,.39-1l4.74-4.58C15.24,8.64,19,13.54,19,19.59Z"/><path class="cls-3" d="M25.8,13.39v11.1A1.47,1.47,0,0,1,24.34,26H6.93A1.46,1.46,0,0,1,5.47,24.5l0-11A1.28,1.28,0,0,1,6,12.47L12.4,7.65l2.82-2.1a1.31,1.31,0,0,1,1.62,0l8.45,6.79A1.31,1.31,0,0,1,25.8,13.39Z"/><line class="cls-3" x1="11.03" y1="22.81" x2="20.19" y2="22.81"/></g></g></svg>