<svg id="Layer_1" data-name="Layer 1" xmlns="http://www.w3.org/2000/svg" viewBox="0 0 28.06 47.6"><defs><style>.cls-1{opacity:0.21;}.cls-2{opacity:0.61;}.cls-3{fill:#2d2d2d;}</style></defs><path d="M439.75,414.64l-3.82-4.6-5.9-7.1-.25-.29-3.57,4.78-3.27-4.4L417,410,413,414.7a2.91,2.91,0,0,0-.64,1.8,3.06,3.06,0,0,0,.74,2.14,2.63,2.63,0,0,0,2,.8h.17a2.93,2.93,0,0,0,2.32-1.28l8.57-10.72.25.28,8.81,10.57a2.67,2.67,0,0,0,2.24,1.15h.09a2.73,2.73,0,0,0,2.09-.87,3,3,0,0,0,.77-2.07A2.62,2.62,0,0,0,439.75,414.64Z" transform="translate(-412.4 -371.84)"/><path class="cls-1" d="M426.43,392.68l-.49-.81-.38-.3-2.68-3.3a30.71,30.71,0,0,0-1.73-3.71h11.6l-6.24,8.29Z" transform="translate(-412.4 -371.84)"/><path class="cls-2" d="M426.51,392.83c1.72-10.82,5.55-14.37,5.55-14.37s-6.48-2.92-9.89-.44c-1.15.83-2.68,1.7-1,7.91l1.73,2.37,2.68,3.3.61.84Z" transform="translate(-412.4 -371.84)"/><path class="cls-2" d="M427.61,390.32" transform="translate(-412.4 -371.84)"/><path d="M426.51,392.85c0-.45-1.66-3.3-1.7-11.08a27.43,27.43,0,0,1,1.7-9.93c-.25,0-7.57,4.11-9.24,9.26a.31.31,0,0,0,.06.28Z" transform="translate(-412.4 -371.84)"/><path d="M437.89,384.66a.19.19,0,0,0-.31,0l-11.12,13.72-8.95-11.07-.43-.52-1.82-2.16a.16.16,0,0,0-.25,0,9,9,0,0,0-.75,1.75,12.53,12.53,0,0,0-.54,5,.63.63,0,0,0,0,.22,1.32,1.32,0,0,0,.29.58L422.89,403l.05.07,3.27,4.42,3.57-4.8L439,391.81a.9.9,0,0,0,.19-.42A11.61,11.61,0,0,0,437.89,384.66Z" transform="translate(-412.4 -371.84)"/><path class="cls-3" d="M426.46,398.36l2.6,3.34.53-.63a4.25,4.25,0,0,0-.09-5.54l-.39-.45Z" transform="translate(-412.4 -371.84)"/></svg>