<svg id="Layer_1" data-name="Layer 1" xmlns="http://www.w3.org/2000/svg" viewBox="0 0 267.96 47.92"><defs><style>.cls-1,.cls-2,.cls-3{fill:#fff;}.cls-2{opacity:0.21;}.cls-3{opacity:0.61;}.cls-4{fill:#bababa;opacity:0.36;}</style></defs><path class="cls-1" d="M195.87,405a10.37,10.37,0,0,0-4.07-2.9,54,54,0,0,0-6.13-1.89,25.86,25.86,0,0,1-5.56-1.71,3,3,0,0,1-1.78-2.82,3.68,3.68,0,0,1,1.94-3.22,9.94,9.94,0,0,1,5.4-1.25,24.38,24.38,0,0,1,7.28,1.15,4,4,0,0,0,.84.13,2.58,2.58,0,0,0,2.56-2.56,2.57,2.57,0,0,0-.48-1.47,2.32,2.32,0,0,0-1.38-.95,26.26,26.26,0,0,0-9.27-1.6q-6,0-9.23,2.8a9.23,9.23,0,0,0-3.23,7.29,7.31,7.31,0,0,0,1.76,5.14,10.9,10.9,0,0,0,4.21,2.91,47.26,47.26,0,0,0,6.23,1.85,33.94,33.94,0,0,1,5.35,1.73,2.4,2.4,0,0,1,1.62,2.24q0,4.53-7.08,4.53a18.59,18.59,0,0,1-4.61-.51,24.48,24.48,0,0,1-4.09-1.41,3,3,0,0,0-1.15-.24,2.31,2.31,0,0,0-1.79.75,2.56,2.56,0,0,0-.71,1.8,2.44,2.44,0,0,0,1.09,2.11,23.78,23.78,0,0,0,11.63,2.87c3.92,0,7-.9,9.11-2.68a8.44,8.44,0,0,0,3.22-6.77A8,8,0,0,0,195.87,405Z" transform="translate(-172.5 -371.84)"/><path class="cls-1" d="M224.91,411.91a2.83,2.83,0,0,0-1.41.37,23.66,23.66,0,0,1-3.61,1.57,12.43,12.43,0,0,1-3.73.48c-3.68,0-6.55-1.06-8.63-3.16a12.65,12.65,0,0,1,0-16.68c2.08-2.12,4.95-3.16,8.63-3.16a12.43,12.43,0,0,1,3.73.48,23.66,23.66,0,0,1,3.61,1.57,3.06,3.06,0,0,0,1.41.37,2.25,2.25,0,0,0,1.69-.79,2.54,2.54,0,0,0-.54-4,22.72,22.72,0,0,0-4.57-2.21,18.17,18.17,0,0,0-5.84-.85,18,18,0,0,0-8.51,2.05,15.6,15.6,0,0,0-6.23,5.86,18.59,18.59,0,0,0,0,18,15.75,15.75,0,0,0,6.23,5.89,18.06,18.06,0,0,0,8.51,2,17.6,17.6,0,0,0,5.84-.87,21.64,21.64,0,0,0,4.57-2.19,2.59,2.59,0,0,0,1.28-2.24,2.51,2.51,0,0,0-.74-1.75A2.23,2.23,0,0,0,224.91,411.91Z" transform="translate(-172.5 -371.84)"/><path class="cls-1" d="M248,386.73a2.62,2.62,0,0,0-2-.83h-.32q-5.58,0-10,6v-2.75a2.85,2.85,0,0,0-.87-2.08,2.76,2.76,0,0,0-2.07-.85,2.7,2.7,0,0,0-2,.85,2.9,2.9,0,0,0-.84,2.08v27.42a2.83,2.83,0,0,0,2.88,2.87,2.85,2.85,0,0,0,2.07-.82,2.74,2.74,0,0,0,.87-2.05V397.14a13,13,0,0,1,4.29-4.13,10.86,10.86,0,0,1,5.62-1.49h.32a3,3,0,0,0,2.1-.77,2.53,2.53,0,0,0,.83-2A2.79,2.79,0,0,0,248,386.73Z" transform="translate(-172.5 -371.84)"/><path class="cls-1" d="M276.25,404a2.82,2.82,0,0,0,.8-2,18.18,18.18,0,0,0-1.79-8,14.12,14.12,0,0,0-5.24-5.86,16.38,16.38,0,0,0-16.67.14,14.17,14.17,0,0,0-5.11,6.2,20.7,20.7,0,0,0-1.68,8.38q0,8,4.39,12.49t12.17,4.44a22.51,22.51,0,0,0,6.26-.71,22.06,22.06,0,0,0,4.92-2.1,2.76,2.76,0,0,0,1.66-2.37,2.36,2.36,0,0,0-.76-1.79,2.64,2.64,0,0,0-1.8-.69,2.72,2.72,0,0,0-1.15.24,17.68,17.68,0,0,1-8.62,2c-3.37,0-6-.83-7.86-2.5a10.51,10.51,0,0,1-3.32-6.95h21.66A2.83,2.83,0,0,0,276.25,404Zm-23.8-3.9A10.53,10.53,0,0,1,254,394.9a8.52,8.52,0,0,1,3.52-3.09,9.77,9.77,0,0,1,8.57,0,8.63,8.63,0,0,1,3.54,3.09,10.25,10.25,0,0,1,1.63,5.24Z" transform="translate(-172.5 -371.84)"/><path class="cls-1" d="M307.63,404a2.91,2.91,0,0,0,.8-2,18.18,18.18,0,0,0-1.79-8,14.26,14.26,0,0,0-5.24-5.86,16.42,16.42,0,0,0-16.69.14,14.37,14.37,0,0,0-5.11,6.2,21,21,0,0,0-1.65,8.38q0,8,4.37,12.49t12.18,4.44A20.12,20.12,0,0,0,305.68,417a2.76,2.76,0,0,0,1.66-2.37,2.37,2.37,0,0,0-.77-1.79,2.58,2.58,0,0,0-1.79-.69,2.61,2.61,0,0,0-1.14.24,19.39,19.39,0,0,1-3.94,1.48,19.12,19.12,0,0,1-4.69.51c-3.37,0-6-.83-7.87-2.5a10.41,10.41,0,0,1-3.31-6.95h21.65A2.84,2.84,0,0,0,307.63,404Zm-23.8-3.9a10.24,10.24,0,0,1,1.6-5.24,8.37,8.37,0,0,1,3.51-3.09,9.73,9.73,0,0,1,8.55,0,8.68,8.68,0,0,1,3.56,3.09,10.25,10.25,0,0,1,1.63,5.24Z" transform="translate(-172.5 -371.84)"/><path class="cls-1" d="M339.07,392.1a10.76,10.76,0,0,0-4-4.55,11.12,11.12,0,0,0-6.1-1.65,13.07,13.07,0,0,0-6.65,1.6,21,21,0,0,0-5.25,4.28v-2.63a2.91,2.91,0,0,0-.85-2.08,2.83,2.83,0,0,0-2.08-.85,2.7,2.7,0,0,0-2.05.85,2.92,2.92,0,0,0-.82,2.08v27.42a2.8,2.8,0,0,0,2.87,2.87,2.92,2.92,0,0,0,2.08-.82,2.79,2.79,0,0,0,.85-2.05V397.4a20.68,20.68,0,0,1,4.77-4.47,10.13,10.13,0,0,1,5.72-1.67q7,0,7,7.79v17.52a2.82,2.82,0,0,0,2.87,2.87,2.89,2.89,0,0,0,2.08-.82,2.76,2.76,0,0,0,.86-2.05V398.42A14.41,14.41,0,0,0,339.07,392.1Z" transform="translate(-172.5 -371.84)"/><path class="cls-1" d="M374.83,373a2.73,2.73,0,0,0-2.05-.86,2.88,2.88,0,0,0-2.08.83,2.77,2.77,0,0,0-.87,2.1v15.66a14.66,14.66,0,0,0-10.92-4.85,15.12,15.12,0,0,0-7.51,2,15.34,15.34,0,0,0-5.75,5.88,19.59,19.59,0,0,0,0,18.08,15.16,15.16,0,0,0,5.75,5.89,14.92,14.92,0,0,0,7.51,2,14.67,14.67,0,0,0,10.92-4.86v1.67a2.74,2.74,0,0,0,.87,2.05,2.87,2.87,0,0,0,2.08.82,2.8,2.8,0,0,0,2.87-2.87V375.09A2.88,2.88,0,0,0,374.83,373Zm-5,36.52a15.79,15.79,0,0,1-4.56,3.49,12.13,12.13,0,0,1-5.53,1.3,10,10,0,0,1-7.6-3c-1.92-2-2.87-4.84-2.87-8.5s1-6.51,2.87-8.49a10,10,0,0,1,7.6-3,12,12,0,0,1,5.53,1.31,15.58,15.58,0,0,1,4.56,3.48Z" transform="translate(-172.5 -371.84)"/><path class="cls-1" d="M409.65,394a14.64,14.64,0,0,0-5.75-6,18.66,18.66,0,0,0-17.2,0,14.51,14.51,0,0,0-5.72,6,20.58,20.58,0,0,0,0,17.7,14.44,14.44,0,0,0,5.72,6,18.66,18.66,0,0,0,17.2,0,14.57,14.57,0,0,0,5.75-6,20.13,20.13,0,0,0,0-17.7Zm-5.34,15.44a9.85,9.85,0,0,1-3.95,3.83,11.08,11.08,0,0,1-10.11,0,9.48,9.48,0,0,1-3.92-3.83,15,15,0,0,1,0-13.23,9.37,9.37,0,0,1,3.92-3.81,11.5,11.5,0,0,1,10.11,0,9.73,9.73,0,0,1,3.95,3.81,14.8,14.8,0,0,1,0,13.23Z" transform="translate(-172.5 -371.84)"/><path class="cls-1" d="M440.46,416.5a3,3,0,0,1-.77,2.07,2.73,2.73,0,0,1-2.09.87h-.09a2.67,2.67,0,0,1-2.24-1.15l-8.81-10.57-.25-.28-8.57,10.72a2.93,2.93,0,0,1-2.32,1.28h-.17a2.63,2.63,0,0,1-2-.8,3.06,3.06,0,0,1-.74-2.14,2.91,2.91,0,0,1,.64-1.8L417,410l5.95-7h0l-.05-.07-8.83-10.76a1.32,1.32,0,0,1-.29-.58.63.63,0,0,1,0-.22,12.53,12.53,0,0,1,.54-5,9,9,0,0,1,.75-1.75.16.16,0,0,1,.25,0l1.82,2.16.43.52,8.95,11.07,11.12-13.72a.19.19,0,0,1,.31,0,11.61,11.61,0,0,1,1.29,6.73.9.9,0,0,1-.19.42l-9.21,10.83h0l.25.29,5.9,7.1,3.82,4.6A2.62,2.62,0,0,1,440.46,416.5Z" transform="translate(-172.5 -371.84)"/><path class="cls-2" d="M426.43,392.68l-.49-.81-.38-.3-2.68-3.3a30.71,30.71,0,0,0-1.73-3.71h11.6l-6.24,8.29Z" transform="translate(-172.5 -371.84)"/><path class="cls-3" d="M426.51,392.83c1.72-10.82,5.55-14.37,5.55-14.37s-6.48-2.92-9.89-.44c-1.15.83-2.68,1.7-1,7.91l1.73,2.37,2.68,3.3.61.84Z" transform="translate(-172.5 -371.84)"/><path class="cls-3" d="M427.61,390.32" transform="translate(-172.5 -371.84)"/><path class="cls-1" d="M426.51,392.85c0-.45-1.66-3.3-1.7-11.08a27.43,27.43,0,0,1,1.7-9.93c-.25,0-7.57,4.11-9.24,9.26a.31.31,0,0,0,.06.28Z" transform="translate(-172.5 -371.84)"/><path class="cls-4" d="M426.46,398.36l2.6,3.34.53-.63a4.25,4.25,0,0,0-.09-5.54l-.39-.45Z" transform="translate(-172.5 -371.84)"/></svg>