<?xml version="1.0" encoding="utf-8"?>
<!-- Generator: Adobe Illustrator 25.3.1, SVG Export Plug-In . SVG Version: 6.00 Build 0)  -->
<svg version="1.1" id="Layer_1" focusable="false" xmlns="http://www.w3.org/2000/svg" xmlns:xlink="http://www.w3.org/1999/xlink"
	 x="0px" y="0px" viewBox="0 0 446 440" style="enable-background:new 0 0 446 440;" xml:space="preserve">
<style type="text/css">
	.st0{fill:#2E2E42;}
	.st1{fill:none;stroke:#2E2E42;stroke-width:10;stroke-miterlimit:10;}
</style>
<path class="st0" d="M315.3,176.5l-17.6,17.6c-1.8,1.8-4.7,1.8-6.5,0l-42.4-42.4c-1.8-1.8-1.8-4.7,0-6.5l17.6-17.6
	c7.1-7.1,18.7-7.1,25.9,0l22.9,22.9C322.5,157.7,322.5,169.3,315.3,176.5z M233.8,160.3L133.5,260.6l-8.1,46.4
	c-1.1,6.3,4.4,11.7,10.6,10.6l46.4-8.1l100.3-100.3c1.8-1.8,1.8-4.7,0-6.5l-42.4-42.4C238.5,158.5,235.6,158.5,233.8,160.3
	L233.8,160.3z M172.6,252c-2.1-2.1-2.1-5.5,0-7.6l58.8-58.8c2.1-2.1,5.5-2.1,7.6,0s2.1,5.5,0,7.6L180.2,252
	C178.1,254.1,174.7,254.1,172.6,252L172.6,252z M158.9,284.1h18.3V298l-24.6,4.3l-11.9-11.9l4.3-24.6h13.9V284.1z"/>
<path class="st1" d="M385.4,370.5H60.6c-12.2,0-22.1-9.9-22.1-22.1V91.7c0-12.2,9.9-22.1,22.1-22.1h324.8c12.2,0,22.1,9.9,22.1,22.1
	v256.7C407.5,360.6,397.6,370.5,385.4,370.5z"/>
</svg>
