<?xml version="1.0" encoding="utf-8"?>
<!-- Generator: Adobe Illustrator 25.2.1, SVG Export Plug-In . SVG Version: 6.00 Build 0)  -->
<svg version="1.1" id="Layer_1" xmlns="http://www.w3.org/2000/svg" xmlns:xlink="http://www.w3.org/1999/xlink" x="0px" y="0px"
	 viewBox="0 0 31.2 31.2" style="enable-background:new 0 0 31.2 31.2;" xml:space="preserve">
<style type="text/css">
	.st0{fill:#FFFFFF;stroke:#2E2E42;stroke-miterlimit:10;}
	.st1{fill:#F9C645;}
	.st2{fill:none;stroke:#2E2E42;stroke-miterlimit:10;}
	.st3{fill:none;stroke:#2E2E42;stroke-linecap:round;stroke-miterlimit:10;}
</style>
<g id="Layer_2_1_">
	<g id="Layer_2-2">
		<path class="st0" d="M22.5,24.2v1.6c0,0.6-0.4,1-1,1H6.8c-0.6,0-1-0.4-1-1V8c0-0.6,0.4-1,1-1h1.9"/>
		<path class="st1" d="M15.7,14.9c3.6,0,6.7,2.5,7.5,6v0.8c0,1.4-1.1,2.5-2.5,2.5l0,0h-9.8c-1.4,0-2.5-1.1-2.5-2.5v-1.6
			C9.5,17,12.4,14.9,15.7,14.9z"/>
		<path class="st2" d="M9.6,4.5h15c0.4,0,0.8,0.4,0.8,0.8v18.1c0,0.4-0.4,0.8-0.8,0.8h-15c-0.4,0-0.8-0.4-0.8-0.8V5.3
			C8.8,4.9,9.1,4.5,9.6,4.5z"/>
		<line class="st3" x1="13.2" y1="13.5" x2="20.9" y2="13.5"/>
		<line class="st3" x1="13.2" y1="9.9" x2="20.9" y2="9.9"/>
		<line class="st3" x1="13.2" y1="17.1" x2="17.6" y2="17.1"/>
	</g>
</g>
</svg>
