<?xml version="1.0" encoding="utf-8"?>
<!-- Generator: Adobe Illustrator 25.2.3, SVG Export Plug-In . SVG Version: 6.00 Build 0)  -->
<svg version="1.1" id="Layer_1" focusable="false" xmlns="http://www.w3.org/2000/svg" xmlns:xlink="http://www.w3.org/1999/xlink"
	 x="0px" y="0px" viewBox="0 0 446 440" style="enable-background:new 0 0 446 440;" xml:space="preserve">
<style type="text/css">
	.st0{fill:#2E2E42;stroke:#2E2E42;stroke-width:10;stroke-miterlimit:10;}
	.st1{fill:#FFFFFF;}
</style>
<circle class="st0" cx="223.5" cy="218" r="201"/>
<path class="st1" d="M266.2,214.4v12.5c0,2.9-2.4,5.3-5.3,5.3h-74.8c-2.9,0-5.3-2.4-5.3-5.3v-12.5c0-2.9,2.4-5.3,5.3-5.3h74.8
	C263.8,209.1,266.2,211.5,266.2,214.4z M260.9,246.5h-74.8c-2.9,0-5.3,2.4-5.3,5.3v12.5c0,2.9,2.4,5.3,5.3,5.3h74.8
	c2.9,0,5.3-2.4,5.3-5.3v-12.5C266.2,248.9,263.8,246.5,260.9,246.5z M309,162.7v147.9c0,11.8-9.6,21.4-21.4,21.4H159.4
	c-11.8,0-21.4-9.6-21.4-21.4V125.3c0-11.8,9.6-21.4,21.4-21.4h90.9c5.7,0,11.1,2.3,15.1,6.3l37.4,37.4
	C306.7,151.6,309,157,309,162.7z M252,127.1V161h33.9C285.9,161,252,127.1,252,127.1z M287.6,310.6V182.3h-46.3
	c-5.9,0-10.7-4.8-10.7-10.7v-46.3h-71.2v185.2H287.6z"/>
</svg>
