<?xml version="1.0" encoding="utf-8"?>
<!-- Generator: Adobe Illustrator 25.2.3, SVG Export Plug-In . SVG Version: 6.00 Build 0)  -->
<svg version="1.1" id="Layer_1" xmlns="http://www.w3.org/2000/svg" xmlns:xlink="http://www.w3.org/1999/xlink" x="0px" y="0px"
	 viewBox="0 0 512 512" style="enable-background:new 0 0 512 512;" xml:space="preserve">
<style type="text/css">
	.st0{fill:#2E2E42;}
	.st1{fill:#FFFFFF;}
</style>
<circle class="st0" cx="256" cy="256" r="251.9"/>
<path class="st1" d="M393.2,358.8l-54.9-54.9c-2.5-2.5-5.8-3.9-9.4-3.9h-9c15.2-19.4,24.2-43.9,24.2-70.5
	c0-63.3-51.3-114.6-114.6-114.6S115,166.3,115,229.6s51.3,114.6,114.6,114.6c26.6,0,51.1-9,70.5-24.2v9c0,3.5,1.4,6.9,3.9,9.4
	l54.9,54.9c5.2,5.2,13.6,5.2,18.7,0l15.6-15.6C398.3,372.4,398.3,364,393.2,358.8z M229.6,300.1c-38.9,0-70.5-31.5-70.5-70.5
	c0-38.9,31.5-70.5,70.5-70.5c38.9,0,70.5,31.5,70.5,70.5C300.1,268.5,268.6,300.1,229.6,300.1z"/>
</svg>
