<?xml version="1.0" encoding="utf-8"?>
<!-- Generator: Adobe Illustrator 25.2.1, SVG Export Plug-In . SVG Version: 6.00 Build 0)  -->
<svg version="1.1" id="Layer_1" xmlns="http://www.w3.org/2000/svg" xmlns:xlink="http://www.w3.org/1999/xlink" x="0px" y="0px"
	 viewBox="0 0 31.2 31.2" style="enable-background:new 0 0 31.2 31.2;" xml:space="preserve">
<style type="text/css">
	.st0{fill:#FFFFFF;}
	.st1{fill:#FFFFFF;stroke:#2E2E42;stroke-miterlimit:10;}
	.st2{fill:#9FD7F2;}
	.st3{fill:none;stroke:#2E2E42;stroke-miterlimit:10;}
	.st4{fill:none;stroke:#2E2E42;stroke-linecap:round;stroke-miterlimit:10;}
</style>
<path class="st0" d="M27.3,9.4v12.5c0.1,1.7-1.2,3.1-2.9,3.1l0,0H6.8c-1.7-0.1-3-1.4-2.9-3.1c0,0,0,0,0-0.1V9.4
	C3.8,7.7,5.1,6.3,6.7,6.2h0.1h17.6C26.1,6.3,27.4,7.7,27.3,9.4C27.3,9.3,27.3,9.4,27.3,9.4z"/>
<path class="st1" d="M24.4,25H6.8"/>
<g id="Layer_2_1_">
	<g id="Layer_2-2">
		<path class="st2" d="M14.7,15.5c0.1,4.4-2.7,8.4-7,9.6H6.8c-1.7-0.1-3-1.4-2.9-3.1c0,0,0,0,0-0.1V9.4C3.8,7.7,5.1,6.3,6.7,6.2h0.1
			h1.9C12.4,7.7,14.8,11.4,14.7,15.5z"/>
		<path class="st3" d="M27.3,9.4v12.5c0.1,1.7-1.2,3.1-2.9,3.1l0,0H6.8c-1.7-0.1-3-1.4-2.9-3.1c0,0,0,0,0-0.1V9.4
			C3.8,7.7,5.1,6.3,6.7,6.2h0.1h17.6C26.1,6.3,27.4,7.7,27.3,9.4C27.3,9.3,27.3,9.4,27.3,9.4z"/>
		<circle class="st3" cx="19.5" cy="13" r="3"/>
		<path class="st4" d="M14.5,20c0-2.8,2.2-3.8,5-3.8s5,1,5,3.8"/>
		<line class="st4" x1="7.1" y1="15.6" x2="10.5" y2="15.6"/>
		<line class="st4" x1="7.1" y1="11.8" x2="10.5" y2="11.8"/>
		<line class="st4" x1="7.1" y1="19.4" x2="9" y2="19.4"/>
	</g>
</g>
</svg>
