<svg xmlns="http://www.w3.org/2000/svg" viewBox="0 0 244.82 244.81"><defs><style>.cls-1{fill:#212121;}.cls-2,.cls-3,.cls-5,.cls-6,.cls-7,.cls-8,.cls-9{fill:#fff;}.cls-3,.cls-5,.cls-6,.cls-7,.cls-9{stroke:#212121;}.cls-10,.cls-3,.cls-4,.cls-5,.cls-6,.cls-7,.cls-8,.cls-9{stroke-miterlimit:10;}.cls-3{stroke-width:0.99px;}.cls-4{fill:#c6d92c;stroke:#333;}.cls-4,.cls-5{stroke-width:2px;}.cls-6{stroke-width:1.88px;}.cls-7{stroke-width:0.5px;}.cls-8{stroke:#fff;stroke-width:1.25px;}.cls-10,.cls-9{stroke-width:0.31px;}.cls-10{fill:none;stroke:#414042;}</style></defs><g id="Layer_2" data-name="Layer 2"><g id="Layer_1-2" data-name="Layer 1"><path class="cls-1" d="M244.82,122.41A122.41,122.41,0,1,1,122.41,0,122.41,122.41,0,0,1,244.82,122.41Z"/><circle class="cls-2" cx="122.41" cy="122.41" r="100.92"/><circle class="cls-1" cx="122.41" cy="122.41" r="70.7"/><path class="cls-3" d="M190.26,135.07a83.3,83.3,0,0,0-7.3-6.49,58.74,58.74,0,0,1-5.72,5.4,64.12,64.12,0,0,1,4.21,6.49A71.28,71.28,0,0,0,190.26,135.07Z"/><path class="cls-3" d="M190.45,120.89a83.15,83.15,0,0,0-8.43-4.78,70.28,70.28,0,0,1-4.49,6.37c1.82,1.63,3.66,3.43,5.47,5.4A73.08,73.08,0,0,0,190.45,120.89Z"/><path class="cls-3" d="M179.19,161.54a65.37,65.37,0,0,0-4-8.89c-1.24.53-2.46,1-3.65,1.49s-2.54.77-3.76,1.11c.28,1.23.53,2.5.77,3.8s.3,2.52.41,3.83A57,57,0,0,0,179.19,161.54Z"/><path class="cls-3" d="M185.19,148.71a71.23,71.23,0,0,0-5.78-7.82,46.42,46.42,0,0,1-6.7,4,49.36,49.36,0,0,1,2.77,7.16A61.52,61.52,0,0,0,185.19,148.71Z"/><path class="cls-3" d="M158.37,181.25a64.31,64.31,0,0,0,0-9.72,58.14,58.14,0,0,1-7.82-.62,62.15,62.15,0,0,1-2,7.44A59,59,0,0,0,158.37,181.25Z"/><path class="cls-3" d="M169,171.93a60.22,60.22,0,0,0-2.1-9.46,49,49,0,0,1-7.71.93,50.75,50.75,0,0,1-.39,7.65c1.63.27,3.31.5,5,.68S167.27,171.91,169,171.93Z"/><path class="cls-3" d="M131.32,190.8a86.31,86.31,0,0,0,3.94-8.88c-2.47-1.24-4.76-2.43-6.91-3.78-1.46,2-3.08,4-4.88,6A72.15,72.15,0,0,0,131.32,190.8Z"/><path class="cls-3" d="M144.87,186.65a77.12,77.12,0,0,0,2-9.47c-2.62-.68-5.11-1.46-7.43-2.31-1,2.22-2.15,4.51-3.48,6.83A67.11,67.11,0,0,0,144.87,186.65Z"/><path class="cls-3" d="M102.72,188.56a79.6,79.6,0,0,0,7.22-6.58q-1.32-1.56-2.52-3.09l-1.17-1.52-1.07-1.65a54.88,54.88,0,0,1-6.89,3.49A67.54,67.54,0,0,0,102.72,188.56Z"/><path class="cls-3" d="M116.81,190.26a83.12,83.12,0,0,0,5.63-7.91,64.57,64.57,0,0,1-5.86-5.13,70.14,70.14,0,0,1-5.94,4.86A71.3,71.3,0,0,0,116.81,190.26Z"/><path class="cls-3" d="M77.57,174.78a61.49,61.49,0,0,0,9.25-3.06c-.4-1.29-.8-2.5-1.09-3.79s-.52-2.6-.73-3.85a47.1,47.1,0,0,1-7.71.39c-.09,1.66-.15,3.4-.12,5.13S77.38,173,77.57,174.78Z"/><path class="cls-3" d="M89.71,182.08a66.86,66.86,0,0,0,8.37-4.93q-1-1.77-1.8-3.48c-.56-1.15-1-2.42-1.45-3.59a46.54,46.54,0,0,1-7.41,2A57.86,57.86,0,0,0,89.71,182.08Z"/><path class="cls-3" d="M60.12,152a70.47,70.47,0,0,0,9.67,1,69.93,69.93,0,0,1,1.43-7.71A72.21,72.21,0,0,1,64,142.49q-1.1,2.2-2.12,4.61l-1,2.45Z"/><path class="cls-3" d="M68.28,163.61a62.66,62.66,0,0,0,9.63-1.09l-.18-1.94,0-2c0-1.31,0-2.59.07-3.83a56.39,56.39,0,0,1-7.56-1.18A57.16,57.16,0,0,0,68.28,163.61Z"/><path class="cls-3" d="M53.45,124.13A85.93,85.93,0,0,0,61.89,129a76.41,76.41,0,0,1,4.47-6.47c-1.82-1.66-3.65-3.48-5.47-5.48A73.7,73.7,0,0,0,53.45,124.13Z"/><path class="cls-3" d="M56.17,138A81.6,81.6,0,0,0,65.39,141a77.6,77.6,0,0,1,3.09-7.15c-2.11-1.23-4.27-2.62-6.45-4.17A72.19,72.19,0,0,0,56.17,138Z"/><path class="cls-3" d="M58.7,95.92a74.6,74.6,0,0,0,5.78,7.87,50,50,0,0,1,6.72-4.08,51.23,51.23,0,0,1-2.75-7.22A38,38,0,0,0,63.59,94Q61.19,94.85,58.7,95.92Z"/><path class="cls-3" d="M55.5,109.74a80.81,80.81,0,0,0,7.3,6.43,55.12,55.12,0,0,1,5.72-5.28,59.27,59.27,0,0,1-4.21-6.42A69.92,69.92,0,0,0,55.5,109.74Z"/><path class="cls-3" d="M75,72.34q.36,2.46.84,4.8c.35,1.58.79,3.18,1.23,4.71a49,49,0,0,1,7.79-1,50.17,50.17,0,0,1,.42-7.71c-1.64-.26-3.34-.47-5.08-.65S76.8,72.34,75,72.34Z"/><path class="cls-3" d="M66.5,83.66a63.49,63.49,0,0,0,4,8.83c1.23-.51,2.44-1,3.63-1.44s2.52-.74,3.74-1.06c-.29-1.22-.56-2.49-.78-3.76s-.32-2.51-.44-3.81c-1.64.08-3.41.14-5.07.37S68.24,83.31,66.5,83.66Z"/><path class="cls-3" d="M99.48,57.36a75.34,75.34,0,0,0-2,9.5c2.64.63,5.18,1.44,7.52,2.24,1-2.22,2.2-4.51,3.55-6.84A66.22,66.22,0,0,0,99.48,57.36Z"/><path class="cls-3" d="M87.09,64.26a65.05,65.05,0,0,0,.07,9.68,61.69,61.69,0,0,1,7.74.69,63.89,63.89,0,0,1,2-7.39A58.51,58.51,0,0,0,87.09,64.26Z"/><path class="cls-3" d="M127.91,53.63a84,84,0,0,0-5.69,7.91,67.91,67.91,0,0,1,6,5.12,72.42,72.42,0,0,1,6-4.87A73.87,73.87,0,0,0,127.91,53.63Z"/><path class="cls-3" d="M113.79,54.91a84.51,84.51,0,0,0-3.88,8.87,72.73,72.73,0,0,1,6.8,3.81c1.44-2,3-4,4.81-6A72.19,72.19,0,0,0,113.79,54.91Z"/><path class="cls-3" d="M155.4,61.84A66,66,0,0,0,147,66.76a46.26,46.26,0,0,1,3.35,7.1,48.27,48.27,0,0,1,7.47-2A58.85,58.85,0,0,0,155.4,61.84Z"/><path class="cls-3" d="M142,57.2a79.81,79.81,0,0,0-7.16,6.58A51,51,0,0,1,139.49,70a52.83,52.83,0,0,1,6.83-3.5A65.28,65.28,0,0,0,142,57.2Z"/><path class="cls-3" d="M177.16,80.5a63.44,63.44,0,0,0-9.67,1.06,50.56,50.56,0,0,1,.2,7.85,53.92,53.92,0,0,1,7.62,1.23A57.48,57.48,0,0,0,177.16,80.5Z"/><path class="cls-3" d="M166.79,70.86c-1.6.41-3.14.84-4.66,1.34s-3.07,1.12-4.54,1.73a45.62,45.62,0,0,1,1.72,7.59A47.49,47.49,0,0,1,167,81.1c.1-1.65.16-3.36.17-5.1S167,72.62,166.79,70.86Z"/><path class="cls-3" d="M189.5,106.4a83.68,83.68,0,0,0-9.23-3c-1,2.58-2,5-3.05,7.25,2.12,1.25,4.28,2.66,6.46,4.24A69,69,0,0,0,189.5,106.4Z"/><path class="cls-3" d="M183.94,93.36a69.91,69.91,0,0,0-9.63-1,70.43,70.43,0,0,1-1.49,7.62,76.24,76.24,0,0,1,7.14,2.74q1.11-2.17,2.14-4.55A37.22,37.22,0,0,0,183.94,93.36Z"/><rect class="cls-4" x="84.31" y="55.96" width="11.55" height="28.9" rx="5.25" transform="translate(-22.27 49.22) rotate(-27.33)"/><rect class="cls-5" x="84.31" y="55.96" width="11.55" height="28.9" rx="5.25" transform="translate(-22.27 49.22) rotate(-27.33)"/><rect class="cls-4" x="147.83" y="56.17" width="12.27" height="28.9" rx="5.45" transform="translate(49.61 -62.8) rotate(27.33)"/><rect class="cls-5" x="147.83" y="56.17" width="12.27" height="28.9" rx="5.45" transform="translate(49.61 -62.8) rotate(27.33)"/><rect class="cls-4" x="78.04" y="149.35" width="11.55" height="28.9" rx="5.25" transform="translate(132.19 -13.73) rotate(42.34)"/><rect class="cls-5" x="78.04" y="149.35" width="11.55" height="28.9" rx="5.25" transform="translate(132.19 -13.73) rotate(42.34)"/><rect class="cls-4" x="154.43" y="149.05" width="12.27" height="28.9" rx="5.45" transform="translate(-68.55 167.85) rotate(-46.61)"/><rect class="cls-5" x="154.43" y="149.05" width="12.27" height="28.9" rx="5.45" transform="translate(-68.55 167.85) rotate(-46.61)"/><path class="cls-4" d="M116,66.69s-2-2.22-2.27-4.11.7-8.89,1.23-10a31.32,31.32,0,0,1,3.14-5.07c1.07-1.26,1.49-2.09,2.72-2.36,1-.22,1.59-.5,2.73.35a26.28,26.28,0,0,1,5,5.31c.9,1.58,3.05,5,3,7.79s-.15,4.28-.81,5.43a8.23,8.23,0,0,1-2.42,2.87c-1.1.77-8.14.83-9.48.88A5.51,5.51,0,0,1,116,66.69Z"/><path class="cls-5" d="M116,66.69s-2-2.22-2.27-4.11.7-8.89,1.23-10a31.32,31.32,0,0,1,3.14-5.07c1.07-1.26,1.49-2.09,2.72-2.36,1-.22,1.59-.5,2.73.35a26.28,26.28,0,0,1,5,5.31c.9,1.58,3.05,5,3,7.79s-.15,4.28-.81,5.43a8.23,8.23,0,0,1-2.42,2.87c-1.1.77-8.14.83-9.48.88A5.51,5.51,0,0,1,116,66.69Z"/><path class="cls-5" d="M115.84,182c-1.33,2.68.66,3,2.89,2.35,5.75-1.69,10.4-13.36,10.67-14.74s-8.1-1.11-8.1-1.11S118.14,177.37,115.84,182Z"/><circle class="cls-6" cx="122.41" cy="122.41" r="53.54"/><circle class="cls-1" cx="122.67" cy="121.1" r="41.63"/><path class="cls-7" d="M103.72,92.33s-11.63,5.16-20.23,5.16c-1.79,0-6-.43-7.19-3.2a109.49,109.49,0,0,0,21.25-4.51c.33,2.81,6.17,2.55,6.17,2.55m1,0c-4.18,2.36-14.46,5.48-20.34,6,.8,1.16,5.07,2,9.12,1.74,6.5-.46,13.45-4.57,15.14-6-1.56-.35-1.65-2.16-3.92-1.8m4.63,2.36c-1.47,1-8.68,5.12-15,5.92,2.35,2.14,7.22,1.54,9.4.89,3.41-1,9.89-5,9.89-5s-2.51-2.23-4.25-1.85m4.75,2.09a76.29,76.29,0,0,1-10.24,5.19,14.73,14.73,0,0,0,3.6.59c.6-1.68,2.8-3.07,4.11-3.71a11.24,11.24,0,0,1,7.14-1l.56-.49a33.3,33.3,0,0,1-5.17-.54m5.81.74c-.17.12-.39.29-.64.49a7.33,7.33,0,0,1,2.51,1.89,4.94,4.94,0,0,0,.38-2.77,5.06,5.06,0,0,0-2.25.39m.77-3.62c-6.46,0-5-6.15-5-7.4s-.09-3.87-4.1-3.38-10.86,4.72-13.2,6.27c-.06,1.07,3.07,2.76,7.29,2.23.3,0,4.11-.74,4.36-.65s-3.06,1.11-2.91,1.19c1.1.57,1.67,1.46,2.54,1.68.26.06,3.45-.55,4-.35.17.06-2.36.84-2.18.92a8.47,8.47,0,0,1,2.87,1.73c.19,0,2.62-.3,2.82-.26s-1.5.63-1.29.66a22.28,22.28,0,0,0,3.45.24c1,0,2.29-.31,2.85,0,.28.1-1.06-2.88-1.44-2.88m47.83.42a109.49,109.49,0,0,1-21.25-4.51c-.33,2.81-6.17,2.55-6.17,2.55s11.63,4.92,20.23,5.16a8.89,8.89,0,0,0,7.19-3.2m-8.09,4c-5.88-.53-16.16-3.65-20.34-6-2.27-.36-2.36,1.45-3.92,1.8,1.69,1.38,8.65,5.33,15.14,6a17.6,17.6,0,0,0,9.12-1.74m-29.22-1.8s6.48,3.94,9.89,5c2.18.65,7.05,1.25,9.4-.89-6.36-.8-13.57-4.94-15-5.92-1.74-.38-4.25,1.85-4.25,1.85m-5.68.78.66.57c2.11-.75,5.3.09,6.87.78a8.57,8.57,0,0,1,4.26,3.9,15.39,15.39,0,0,0,3.63-.6,76.29,76.29,0,0,1-10.24-5.19,33.4,33.4,0,0,1-5.18.54m-2.88-.19a4.87,4.87,0,0,0,.54,3.07,6,6,0,0,1,2.51-2.07c-.32-.25-.6-.47-.8-.61a5.06,5.06,0,0,0-2.25-.39m10.59-14c-4-.49-4.1,2.13-4.1,3.38s1.45,7.4-5,7.4c-.38,0-1.72,3-1.44,2.88.56-.31,1.82,0,2.84,0a22.32,22.32,0,0,0,3.46-.24c.21,0-1.49-.63-1.29-.66s2.63.29,2.82.26a8.47,8.47,0,0,1,2.87-1.73c.18-.08-2.35-.86-2.18-.92.5-.2,3.69.41,3.95.35.87-.22,1.44-1.11,2.54-1.68.15-.08-3.15-1-2.91-1.19s4.06.7,4.36.65c4.22.53,7.35-1.16,7.29-2.23-2.34-1.55-9.18-5.78-13.2-6.27m-8,53.66a3.29,3.29,0,0,1,1.91,2.33,2.45,2.45,0,0,1-.83,2.6,5.75,5.75,0,0,1-2.54,1.3,8.1,8.1,0,0,1,3.14,1.15l.4-.26a5.1,5.1,0,0,0,2.4-4.62,6.05,6.05,0,0,0-2.71-4.58,8.91,8.91,0,0,0-5-1.19,10.57,10.57,0,0,1-3.86-.6c-1.16-.47-1.8-1.13-1.84-1.94a3.79,3.79,0,0,1,1.1-2.88,3.71,3.71,0,0,1,1.2-.75l-.48-.12a14.8,14.8,0,0,1-3.29-1.16,7,7,0,0,0-1.66,4.61,4.9,4.9,0,0,0,1,3.05,6.12,6.12,0,0,0,2.37,1.76,12.3,12.3,0,0,0,5,.87,7.8,7.8,0,0,1,3.75.43m-.34,15.89a5.25,5.25,0,0,0-2.51-1.52,6.5,6.5,0,0,1-2.26-1.09c-1.26-.83-1.38-3.24,0-4.05a2.52,2.52,0,0,1,.4-.21c-.73-.26-1.46-.55-2.2-.79a3.85,3.85,0,0,0-1,2.47,4.37,4.37,0,0,0,1.32,3.46c1.83,1.69,4,1.37,5,2.29a3.26,3.26,0,0,1,1.13,3.29c-.38,2.25-2.33,2.06-2.24,2.22s.23.2.84.14a2.59,2.59,0,0,0,2.1-1.78,5.17,5.17,0,0,0,.33-2,3.87,3.87,0,0,0-1-2.41m-4.71,3.85a3.27,3.27,0,0,1,1.14-3.29,1.46,1.46,0,0,1,.28-.21c-.43-.18-.85-.37-1.27-.57l-.21.22a3.87,3.87,0,0,0-1,2.41,5.17,5.17,0,0,0,.33,2,2.59,2.59,0,0,0,2.1,1.78c.61.06.88-.08.83-.14s-1.86,0-2.24-2.22m7.49-9a4.05,4.05,0,0,0-2.22-3.45,11,11,0,0,0-3.8-.93,5.91,5.91,0,0,1-3-1.39,2.45,2.45,0,0,1-.83-2.6,3.36,3.36,0,0,1,1.41-2.06l-.63-.13c-.75-.21-1.44-.53-2.17-.8a6.11,6.11,0,0,0-1.18,3.16,5.1,5.1,0,0,0,2.4,4.62,8.67,8.67,0,0,0,4.23,1.42,5.92,5.92,0,0,1,3,.69c1.37.81,1.24,3.22,0,4.05a5.76,5.76,0,0,1-1.64.89,14.86,14.86,0,0,1,1.87.84,6.18,6.18,0,0,0,1.23-.85,4.4,4.4,0,0,0,1.32-3.46m1.84-22.1a9.45,9.45,0,0,0-5.23-2,42.69,42.69,0,0,1-4.62-.29c-2.8-.34-5.67-1.91-5.41-3.45,0-1.91,1.46-3.15,3.6-3.81a16.14,16.14,0,0,1-5-1.37l-.17-.1a7.12,7.12,0,0,0-2.19,5.64,5.59,5.59,0,0,0,1.33,3.27,8.28,8.28,0,0,0,2.46,1.89,15.48,15.48,0,0,0,5.22,1.47c1.76.23,3.56,0,4.79.17a5.64,5.64,0,0,1,3.33,1.25,3.83,3.83,0,0,1,1.1,2.88c0,.81-.68,1.47-1.85,1.94a7.86,7.86,0,0,1-1.16.34,32,32,0,0,1,3.53,1.83,5.77,5.77,0,0,0,1.59-1.36,4.9,4.9,0,0,0,1-3.05,6.81,6.81,0,0,0-2.37-5.29m-7.07-25.48-1.31,3c0,2.39,0,4.89.05,7.48h2.49c0-2.58,0-5.09.07-7.48Zm0-4.19,1.34-2.49V91.7c0-.67-.6-1-1.34-1s-1.35.2-1.35,1v1.49Zm-1.22,20.24q0,3.33.06,6.71h2.23c0-2.24.06-4.49.09-6.71Zm.12,11.41c0,2,.05,4,.08,5.9h1.93c0-1.94.06-3.91.09-5.9Zm1.84,15.21c0-1.91.07-3.9.11-5.94h-1.82c0,2,.06,4,.1,5.94Zm-.19,8.1c0-1.52.08-3.15.12-4.85h-1.48c0,1.7.07,3.33.11,4.85Zm-1.18,2.55c0,5,0,8.82.05,9.87h1c0-1.09.13-4.07.1-9.88Zm.63-71.44a3.39,3.39,0,1,0,3.38,3.38,3.39,3.39,0,0,0-3.38-3.38m0,7.08c-1.1,0-2-.59-2.35-.3s.53,2,2.35,2,2.69-1.73,2.34-2-1.25.35-2.34.3m12,31.18a5.59,5.59,0,0,1-1.33,3.27,8.28,8.28,0,0,1-2.46,1.89h0a11,11,0,0,0-4.45-2.22c2.48-.52,4.75-1.92,4.52-3.3,0-2.22-2-3.54-4.69-4.09-4.85-1-12.8.79-17.47-5.38a6.36,6.36,0,0,1-1-2.68,9,9,0,0,1,0-2.54,7,7,0,0,1,2.47-4.55c2.72-2.11,5.4-2.21,7.63-2.42,1.17,0,3,1.25,3.83,2.48a.87.87,0,0,1-.2.55c-.61.82-2.46,1.22-3.39,1.26-1.86.1-2.9-1.84-5.29.77-.56.46-.72,1.65-.85,2.52a3.2,3.2,0,0,0,.39,2.36c.88,1.4,3.33,2.49,5.89,2.9a29.34,29.34,0,0,0,4.15.33,24.58,24.58,0,0,1,4.94.6,11.51,11.51,0,0,1,5,2.47,7.12,7.12,0,0,1,2.34,5.78m2.95-12.51a6.36,6.36,0,0,1-1,2.68,11.08,11.08,0,0,1-3.83,3.22,19.59,19.59,0,0,0-2.84-1.47,17.55,17.55,0,0,0-2.61-1l-.34-.07.18,0c2.56-.41,5-1.5,5.89-2.9a3.2,3.2,0,0,0,.39-2.36c-.13-.87-.29-2.06-.85-2.52-2.39-2.61-3.44-.67-5.29-.77-1.12,0-3.59-.62-3.59-1.81.79-1.23,2.66-2.53,3.83-2.48,2.22.21,4.91.31,7.63,2.42a7.06,7.06,0,0,1,2.47,4.55,9,9,0,0,1,0,2.54"/><path class="cls-8" d="M102.57,111l.17.06h0a.7.7,0,0,0-.07.22s0,0,0,.06q-1.39,5.24-2.76,10.45l0,.08a.37.37,0,0,0,0,.43l.44.73,1,1.61L107,134l3,4.94,1.18,2,0,0,.08,0v.08a1.09,1.09,0,0,1-.05.17.66.66,0,0,0,0,.42v0l.09.16.08.13h0a.61.61,0,0,0,.05.12l.06.18a.2.2,0,0,1,0,.11.4.4,0,0,0,0,.28h0v0a.31.31,0,0,0,0,.18.17.17,0,0,1,0,.12.38.38,0,0,0,0,.33h0a.4.4,0,0,0,.16.18l0,0,0,.07h0v0l.08.12a.25.25,0,0,0,.12.11l0,0v0a.14.14,0,0,1,0,.14h0l-.11.07-.13.08a.37.37,0,0,0-.14.08l-.11.06h0l-.07,0h0l-.08,0a.79.79,0,0,0-.25.14.09.09,0,0,0,0,.05c0,.1-.08.16-.15.18h0l-.14.09a.28.28,0,0,0-.15.32.14.14,0,0,0,0,.06s0,.07,0,.16a.44.44,0,0,0,0,.28.43.43,0,0,1,0,.05s0,.06,0,.07v0a.77.77,0,0,0-.18.1l-.09.06a.42.42,0,0,0-.21.34c0,.09,0,.14-.07.16h0a.34.34,0,0,0-.12.12.05.05,0,0,1,0,0h0l0,0-.11.06a.49.49,0,0,0-.3.6v0a.53.53,0,0,1-.1.42.36.36,0,0,0-.11.45h0a.47.47,0,0,0,.15.19h0a.36.36,0,0,0,.18.1l.07,0v0a.93.93,0,0,1-.14.58,1.1,1.1,0,0,0-.11.12.05.05,0,0,1,0,0,.48.48,0,0,1-.21,0H109a1.05,1.05,0,0,0-.31,0l-5.31-.86-.37-.07c-.23,0-.46-.09-.71-.11h-.1c-.06,0-.1,0-.11-.07s0-.11,0-.17a.31.31,0,0,0-.16-.43l-.06,0c-.09-.07-.1-.12-.1-.14s0,0,0-.05a1.1,1.1,0,0,0,.19-.89c0-.06,0-.12,0-.17a3.32,3.32,0,0,0-.81-2.21,7.53,7.53,0,0,1-.62-.86.93.93,0,0,0-.5-.43.85.85,0,0,0-.32,0h-.13a.35.35,0,0,1,0-.14,1,1,0,0,0-.09-.9l0-.08a.56.56,0,0,0-.38-.3,1,1,0,0,0-.41,0,.7.7,0,0,1-.21,0,.69.69,0,0,1-.33-.23,1.56,1.56,0,0,0-.28-.23l-.11-.09c-.09-.07-.16-.13-.16-.19a1,1,0,0,0-.43-.89,2.26,2.26,0,0,1-.26-.29.32.32,0,0,0-.17-.12.52.52,0,0,0-.17,0h0a1,1,0,0,1-.3,0,1.63,1.63,0,0,1-.53-.26,1.67,1.67,0,0,0-.62-.34,1,1,0,0,0-.31,0h-.14a1,1,0,0,1-.44-.38l-.16-.19a.26.26,0,0,1,0-.1l0-.06a1.57,1.57,0,0,0,.19-1c0-.1,0-.15.11-.28a.64.64,0,0,0,.21-.5c0-.17-.17-.3-.38-.44a1.08,1.08,0,0,1-.25-.19.81.81,0,0,1,.16-.2.45.45,0,0,0,.13-.31.43.43,0,0,0-.16-.28,1.77,1.77,0,0,1-.51-.86.31.31,0,0,0-.15-.21c-.23-.1-.27-.28-.3-.58a.77.77,0,0,1,0-.15,3.86,3.86,0,0,0-.24-.75,3.89,3.89,0,0,1-.21-.66.58.58,0,0,0-.19-.35c-.4-.33-.32-.73-.24-1.2a1.16,1.16,0,0,1,0-.18c0-.05,0-.06.13-.11a.88.88,0,0,0,.5-.7.92.92,0,0,0-.27-.86.37.37,0,0,0-.15-.08.25.25,0,0,0-.17,0,.28.28,0,0,1-.15,0c-.09,0-.15-.12-.23-.28s-.09-.18-.13-.27-.12-.24-.19-.36-.12-.37,0-.53a.75.75,0,0,0,0-.85.3.3,0,0,1,0-.37.75.75,0,0,0,.17-.47s0-.06,0-.06a0,0,0,0,1,0,0h0s.06,0,.06,0a1.11,1.11,0,0,0,.22,1.1,1.91,1.91,0,0,1,.16.27.39.39,0,0,0,.19.19h0a.26.26,0,0,0,.21,0,.26.26,0,0,0,.15-.18c0-.1-.06-.18-.1-.24l0,0c-.05-.06-.1-.12-.09-.16a2,2,0,0,0-.15-1c0-.11-.07-.22-.1-.33s0-.32.17-.4a1,1,0,0,1,.55,0,2.84,2.84,0,0,1,.38.13l.41.14a1.77,1.77,0,0,0,.41,0h0a.48.48,0,0,1,.11.08.83.83,0,0,0,.21.12h0a.12.12,0,0,0,.12,0,.11.11,0,0,0,0-.14.14.14,0,0,0-.09-.08h0a1.07,1.07,0,0,0-.46-.24,1.3,1.3,0,0,0-.4,0,3.2,3.2,0,0,1-.39-.16c-.15-.06-.3-.13-.46-.18l-.19,0a.59.59,0,0,0-.36-.35h-.07a.41.41,0,0,0-.51.28l0,.08a2.66,2.66,0,0,1-.23.55,1.25,1.25,0,0,1-.34-.38,1.06,1.06,0,0,0-.59-.53h0c.34-.34.34-.41.17-.89l0-.12a4.59,4.59,0,0,0-.57-1.18,1.35,1.35,0,0,1-.2-.45,2.21,2.21,0,0,0-.55-1q-.14-.14-.12-.21s.06-.1.11-.13a.47.47,0,0,0,.18-.44v-.11a2,2,0,0,0,0-.41,1.34,1.34,0,0,1,.19-1.08,2,2,0,0,0,0-1.7,4.36,4.36,0,0,0-.81-1.5c0-.06-.06-.09,0-.13s0,0,0,0a.27.27,0,0,0,0-.18c-.13-.54.13-.82.66-1.15a1.67,1.67,0,0,0,.65-1.29v0a1.4,1.4,0,0,1,.26-.73,2,2,0,0,0,.28-1.8.61.61,0,0,1,0-.58.67.67,0,0,0,.12-.29.13.13,0,0,1,0-.06.58.58,0,0,0,.17.06l.13,0,.11,0h0L97,109.51l5.27,1.39h0l.16,0Z"/><path class="cls-2" d="M238.21,145.9a46.37,46.37,0,0,0,1.74-7.74c.16-1.13.29-2.34.37-3.6a37.33,37.33,0,0,0-.32-3.88,24.9,24.9,0,0,0-2.18-7.6s-2.25,1.58-4.92,3.82a54.2,54.2,0,0,0-4.08,3.77,42.73,42.73,0,0,0-3.55,4.27,25.77,25.77,0,0,0,2.71,2.72C230,139.46,233.22,142.12,238.21,145.9Z"/><path class="cls-2" d="M226.61,142.76l0,.4a7,7,0,0,1-.15,1.14c-.21,1-.52,2.34-1,4s-1,3.55-1.72,5.55a53.78,53.78,0,0,1-3.2,5.93,31.82,31.82,0,0,0,6.06-.08,29.57,29.57,0,0,0,5.69-1.17,15.76,15.76,0,0,0,5.53-2.9,10.72,10.72,0,0,0-1.69-3.32A39.78,39.78,0,0,0,226.61,142.76Z"/><path class="cls-2" d="M221.82,186.11a47.18,47.18,0,0,0,4.58-6.5,34.24,34.24,0,0,0,2.69-7,18.3,18.3,0,0,0,.66-7.9l-1.68.5-4.14,1.34c-3.37,1.11-7.36,2.61-10.06,4.72a8.4,8.4,0,0,0,.36.88c.23.58.6,1.45,1.18,2.64C216.58,177.16,218.6,180.81,221.82,186.11Z"/><path class="cls-2" d="M212.17,179s-.26.51-.72,1.38c-.24.44-.54,1-.88,1.56l-1.38,1.86c-2.09,2.68-4.88,6.32-8.79,8.91a33.22,33.22,0,0,0,5.71,2.13,27.88,27.88,0,0,0,5.74,1A18.56,18.56,0,0,0,218,195a10.34,10.34,0,0,0-.33-3.67,31,31,0,0,0-1.57-5A48.53,48.53,0,0,0,212.17,179Z"/><path class="cls-2" d="M192.09,217.69s.76-.39,2-1.12a30.57,30.57,0,0,0,4.64-3.28c3.3-3.14,7.36-7.37,8.48-12.7,0,0-2.67-.29-6.06-.35S193.29,200,190,201a29,29,0,0,0,.26,3.93C190.45,207.51,191,211.61,192.09,217.69Z"/><path class="cls-2" d="M185.65,207.57l-1.18,1a29.13,29.13,0,0,1-3.29,2.45c-1.46.87-3.2,1.84-5.12,2.78-1,.47-2,.93-3,1.37a31.66,31.66,0,0,1-3.31,1,32.55,32.55,0,0,0,4.57,4.09,21.58,21.58,0,0,0,11,4.43,10.36,10.36,0,0,0,1-3.51C186.81,218.65,186.91,214.16,185.65,207.57Z"/><path class="cls-2" d="M153,236.43s.85-.06,2.26-.28c.7-.11,1.54-.25,2.48-.45s1.93-.62,3-1a42.49,42.49,0,0,0,6.76-3.22,21.89,21.89,0,0,0,5.76-5.51s-2.39-1.25-5.55-2.56-7.18-3-10.63-3.34a27.45,27.45,0,0,0-1.19,3.73C155.17,226.5,154.17,230.43,153,236.43Z"/><path class="cls-2" d="M150.64,224.69s-2.13.75-5.43,1.58a29.78,29.78,0,0,1-5.78.72,45.52,45.52,0,0,1-6.71,0s.24.63.69,1.61a34,34,0,0,0,2.08,3.73,22.79,22.79,0,0,0,8.63,8.19,9.16,9.16,0,0,0,2.24-2.86A43.85,43.85,0,0,0,150.64,224.69Z"/><path class="cls-2" d="M109.71,239.86l.58.18c.38.08.93.18,1.63.28a49.2,49.2,0,0,0,5.65.55,25.74,25.74,0,0,0,14.82-3.52s-1.78-2.08-4.25-4.51a46.86,46.86,0,0,0-8.71-6.89,24.81,24.81,0,0,0-2.46,3C115.36,231.05,113,234.64,109.71,239.86Z"/><path class="cls-2" d="M111.76,228.07s-.56,0-1.54-.12-2.39-.28-4.07-.55a48.1,48.1,0,0,1-5.69-1.21,59.73,59.73,0,0,1-6.21-2.61,31.83,31.83,0,0,0,.66,6,27.93,27.93,0,0,0,1.69,5.54,16.07,16.07,0,0,0,3.4,5.28,10.58,10.58,0,0,0,3.14-2A41.51,41.51,0,0,0,111.76,228.07Z"/><path class="cls-2" d="M68.15,227.3a46.72,46.72,0,0,0,6.9,3.92,29.63,29.63,0,0,0,7.22,2,18.72,18.72,0,0,0,7.92-.06l-.65-1.61-1.72-4.05c-1.42-3.23-3.28-7-5.64-9.53l-.83.4c-.55.28-1.38.74-2.51,1.43C76.58,221.23,73.13,223.59,68.15,227.3Z"/><path class="cls-2" d="M74.36,217l-1.44-.58a21.51,21.51,0,0,1-3.61-2c-1.44-.9-3.1-2-4.82-3.26l-1.29-1L62,209.07c-.8-.81-1.59-1.64-2.35-2.51a32.29,32.29,0,0,0-1.6,5.87,28.63,28.63,0,0,0-.46,5.82,18.22,18.22,0,0,0,1.32,6.05,10.56,10.56,0,0,0,3.63-.68A37.94,37.94,0,0,0,74.36,217Z"/><path class="cls-2" d="M34,200.58s.45.72,1.29,1.86A37.93,37.93,0,0,0,39,206.77a42,42,0,0,0,6,4.5,19.63,19.63,0,0,0,3.54,1.8,22.43,22.43,0,0,0,3.9,1s.05-2.67-.21-6.05-.46-7.82-1.73-11c0,0-.31,0-1,.1s-1.65.28-2.92.49C44,198,39.92,198.94,34,200.58Z"/><path class="cls-2" d="M43.45,193.24l-1.12-1.08a23.43,23.43,0,0,1-2.72-3.06c-1-1.38-2.14-3-3.26-4.84-.55-.91-1.12-1.85-1.64-2.84s-.87-2.13-1.25-3.22a32.94,32.94,0,0,0-3.64,4.92,21.32,21.32,0,0,0-3.42,11.35,10.34,10.34,0,0,0,3.6.7,27.35,27.35,0,0,0,5.24-.17A54.93,54.93,0,0,0,43.45,193.24Z"/><path class="cls-2" d="M11.69,163.35s.15.84.51,2.22a23,23,0,0,0,1.94,5.34A41.71,41.71,0,0,0,18,177.32a20.45,20.45,0,0,0,6,5.23s1-2.49,2-5.76c.25-.81.5-1.67.73-2.56s.56-1.86.8-2.81a24,24,0,0,0,.82-5.52,27.84,27.84,0,0,0-3.84-.84C21.75,164.64,17.85,164,11.69,163.35Z"/><path class="cls-2" d="M23.17,160s-1-2-2.11-5.25A43.37,43.37,0,0,1,19.83,149a32.94,32.94,0,0,1-.58-6.69s-.59.29-1.54.84a28.16,28.16,0,0,0-3.59,2.43,22.55,22.55,0,0,0-7.31,9.34,10.16,10.16,0,0,0,3.06,2C12.27,158,16.55,159.33,23.17,160Z"/><path class="cls-2" d="M4.34,120.59A15.36,15.36,0,0,0,4,122.84a53.73,53.73,0,0,0,0,5.67,28.72,28.72,0,0,0,1.22,7.38A25.61,25.61,0,0,0,8.89,143s1.9-2,4.07-4.65a52.35,52.35,0,0,0,3.26-4.43A30.38,30.38,0,0,0,19.06,129a26.22,26.22,0,0,0-3.21-2.18c-1.16-.7-2.67-1.56-4.59-2.6Z"/><path class="cls-2" d="M16.26,121.56s-.09-2.25.12-5.65a29.67,29.67,0,0,1,.72-5.77,56.78,56.78,0,0,1,2-6.44,31.78,31.78,0,0,0-5.91,1.21c-3.3,1-7.51,2.85-10.34,6.07a11,11,0,0,0,2.31,2.94A42.61,42.61,0,0,0,16.26,121.56Z"/><path class="cls-2" d="M12.94,78.05A46.9,46.9,0,0,0,9.71,85.3a26.16,26.16,0,0,0-1.38,7.37,20,20,0,0,0,.77,7.87l1.54-.8c.95-.51,2.4-1.21,3.92-2.06a36.14,36.14,0,0,0,9-6.51A24.88,24.88,0,0,0,21.39,88C19.79,85.89,17.11,82.67,12.94,78.05Z"/><path class="cls-2" d="M23.75,83.28A22.29,22.29,0,0,1,25.84,78c.75-1.52,1.68-3.28,2.77-5.11a34.36,34.36,0,0,1,4.21-5.25,31.57,31.57,0,0,0-6-1A29.42,29.42,0,0,0,21,66.7a17.05,17.05,0,0,0-5.92,1.87,10.63,10.63,0,0,0,1,3.55A37.79,37.79,0,0,0,23.75,83.28Z"/><path class="cls-2" d="M36.41,41.55a43.45,43.45,0,0,0-5.71,5.52,41.11,41.11,0,0,0-3.92,6.39,25.88,25.88,0,0,0-1.49,3.67,22.74,22.74,0,0,0-.59,4s2.65-.22,6-.77c3.53-.46,7.75-1.18,10.82-2.74,0,0,0-.31-.19-.94s-.39-1.53-.74-2.85C39.9,51.28,38.6,47.34,36.41,41.55Z"/><path class="cls-2" d="M44.59,50.33l1-1.22a21.29,21.29,0,0,1,2.82-3c1.27-1.13,2.79-2.41,4.5-3.7a25.81,25.81,0,0,1,2.7-1.88c1-.55,2-1.07,3.08-1.56a32.77,32.77,0,0,0-5.24-3.15A21,21,0,0,0,41.8,33.46a10.51,10.51,0,0,0-.35,3.66,28.39,28.39,0,0,0,.62,5.18A56.51,56.51,0,0,0,44.59,50.33Z"/><path class="cls-2" d="M71.42,15.94s-.82.23-2.15.72a24.09,24.09,0,0,0-5.14,2.41,41,41,0,0,0-6,4.47c-.49.44-1,.9-1.42,1.37s-.84,1.06-1.23,1.61a22.24,22.24,0,0,0-2,3.46s2.57.78,5.91,1.47,7.65,1.7,11.07,1.34a27.52,27.52,0,0,0,.47-3.91C71.11,26.14,71.37,22.12,71.42,15.94Z"/><path class="cls-2" d="M75.88,27.06s1.94-1.16,5-2.61c1.6-.59,3.5-1.18,5.56-1.74a27.85,27.85,0,0,1,6.61-1.17,32.6,32.6,0,0,0-3.74-4.86,22.47,22.47,0,0,0-10-6.36,10.2,10.2,0,0,0-1.67,3.23C76.78,15.94,75.89,20.42,75.88,27.06Z"/><path class="cls-2" d="M113.33,4.71s-.85-.11-2.27-.17a32,32,0,0,0-5.65.52,36.26,36.26,0,0,0-7.24,1.86,25.41,25.41,0,0,0-6.68,4.36s2.12,1.69,5,3.59c1.44,1,3,1.91,4.72,2.83a24.18,24.18,0,0,0,5.1,2.4,27.33,27.33,0,0,0,1.87-3.42C109.35,14.23,111,10.25,113.33,4.71Z"/><path class="cls-2" d="M113.45,16.67s2.24-.32,5.64-.46c3.4-.35,8,.46,12.41,1.56,0,0-1.76-10.18-8.74-15.51a2.52,2.52,0,0,0-.71.49,16.86,16.86,0,0,0-2,2.07A43.16,43.16,0,0,0,113.45,16.67Z"/><path class="cls-2" d="M156.48,9.29A46.53,46.53,0,0,0,149,6.79a24.44,24.44,0,0,0-7.46-.71,22.68,22.68,0,0,0-7.76,1.46l.93,1.51c.59,1,1.43,2.28,2.42,3.72a39.12,39.12,0,0,0,7.31,8.33,25.9,25.9,0,0,0,3-2.43C149.31,16.87,152.26,13.89,156.48,9.29Z"/><path class="cls-2" d="M152.28,20.55l1.53.29c.95.25,2.28.73,3.88,1.32s3.43,1.36,5.35,2.26a40.52,40.52,0,0,1,5.62,3.73,31.71,31.71,0,0,0,.48-6.06c0-3.47-.62-8.11-3-11.53a10.64,10.64,0,0,0-3.45,1.36,31.65,31.65,0,0,0-4.37,2.91A42,42,0,0,0,152.28,20.55Z"/><path class="cls-2" d="M195,29.31a47.37,47.37,0,0,0-6-5.18,38.69,38.69,0,0,0-6.73-3.31,29.5,29.5,0,0,0-3.79-1.14,19.35,19.35,0,0,0-4-.23l.34,1.72,1,4.22c.79,3.46,1.9,7.58,3.74,10.48,0,0,1.23-.33,3.67-1.24S189.43,32,195,29.31Z"/><path class="cls-2" d="M187,38.26l1.3.85a19.16,19.16,0,0,1,3.22,2.55c2.43,2.36,5.85,5.43,8.05,9.58a32.16,32.16,0,0,0,2.65-5.5,21,21,0,0,0,1.31-11.8,10.24,10.24,0,0,0-3.67,0,30.36,30.36,0,0,0-5.1,1.09A53.33,53.33,0,0,0,187,38.26Z"/><path class="cls-2" d="M223.71,61.82s-.3-.8-.92-2.08a26.82,26.82,0,0,0-2.86-4.91c-2.78-3.61-6.67-8-11.85-9.61,0,0-.54,2.63-.91,6s-1,7.77-.32,11.15a27.31,27.31,0,0,0,4,.1C213.47,62.48,217.56,62.33,223.71,61.82Z"/><path class="cls-2" d="M213.05,67.29a45.44,45.44,0,0,1,3.06,4.76c.72,1.54,1.51,3.37,2.26,5.37a26,26,0,0,1,1.76,6.48,33.4,33.4,0,0,0,4.5-4.18A22,22,0,0,0,230,69.2a10.22,10.22,0,0,0-3.39-1.35C224.22,67.14,219.68,66.67,213.05,67.29Z"/><path class="cls-2" d="M238.77,102.51s0-.85-.06-2.27a24.46,24.46,0,0,0-1-5.59,41.68,41.68,0,0,0-2.53-7,24.12,24.12,0,0,0-5-6.24s-1.48,2.26-3.09,5.29-3.59,6.85-4.31,10.27a26.13,26.13,0,0,0,3.6,1.54c1.26.47,3,1,5,1.7S235.84,101.63,238.77,102.51Z"/><path class="cls-2" d="M226.86,103.73s.54,2.2,1,5.57a24.06,24.06,0,0,1,.3,2.72c0,1,0,2-.06,3.09a58.75,58.75,0,0,1-.64,6.69s10-2.69,14.56-10.12a4.3,4.3,0,0,0-.52-.66,10.88,10.88,0,0,0-2.19-1.82A43.71,43.71,0,0,0,226.86,103.73Z"/><path class="cls-2" d="M145.36,116.61s.08-2.56,1.11-3.41a11.75,11.75,0,0,0,1.87-2.14l.18,1A8.51,8.51,0,0,0,146,116.7Z"/><path class="cls-2" d="M136.79,125.23s-2.2,7.1-1.6,9.4,1.88,6.24,3.42,7.43,1.58.7,3.59.15a8.63,8.63,0,0,0,4.87-3.77c1.38-1.92,1.1-1.33,1.45-3.38s-.94-8.28-.94-8.28l-.69-3-5-.86Z"/><path class="cls-2" d="M149.26,110.32s-1.49,4.84-1.12,7.44l1.12-.56s.09-5.11.74-6.23S149.26,110.32,149.26,110.32Z"/><path class="cls-9" d="M143.73,116.61s-3.33-.34-5,1.63a8.43,8.43,0,0,0-2.22,5.38l-.08,1.62a25.7,25.7,0,0,1,4.87-.6c1.11.17,2.3-1,2.3-1s3.93-4.19,4.1-4.53.48-1.33.48-1.33S147.92,116.27,143.73,116.61Z"/><path class="cls-9" d="M144,127.57c-.36.35,1.91,7.34,4.8,9.92,2.72,2.42,4.28,2.33,6.2,1.69s2.45-3.13,3.09-5.53-.48-9-.64-9.93S149.72,122,144,127.57Z"/><path class="cls-9" d="M144,127.57a3.21,3.21,0,0,1-1.56-4.25c1.29-2.87,4.73-5,4.73-5l4.15-1.29s3.58.15,4.59.86,2.15,1.44,2.15,2.87a9.54,9.54,0,0,1-.61,3S152.13,120.7,144,127.57Z"/><polyline class="cls-10" points="144.09 123.06 144.88 121.4 146.36 122.15"/><polyline class="cls-10" points="146.66 121.34 147.2 119.71 148.68 120.47"/><polyline class="cls-10" points="149.03 120.03 149.72 118.47 151.12 119.37"/><polyline class="cls-10" points="151.66 119.72 152.61 118.29 153.84 119.41"/><polyline class="cls-10" points="154.16 119.86 155.51 118.81 156.55 119.83"/><polyline class="cls-10" points="144.68 124.53 145.22 122.91 146.7 123.66"/><polyline class="cls-10" points="143.09 125.47 143.57 124.69 144.29 124.93"/><polyline class="cls-10" points="142.85 124.23 143.1 123.72 143.82 123.83"/><polyline class="cls-10" points="143.8 126.77 143.91 125.79 144.79 125.89"/><polyline class="cls-10" points="147 122.84 147.69 121.36 149.02 121.98"/><polyline class="cls-10" points="149.37 121.54 150.17 120.27 151.46 120.88"/><polyline class="cls-10" points="152 121.22 153.06 120.17 154.18 120.92"/><polyline class="cls-10" points="154.5 121.37 155.85 120.32 156.91 121.56"/><polyline class="cls-10" points="145.38 125.47 145.86 124.42 147.05 124.5"/><polyline class="cls-10" points="147.82 123.94 148.18 122.79 149.37 123.22"/><polyline class="cls-10" points="150.03 122.86 150.56 121.66 151.73 122.41"/><polyline class="cls-10" points="152.54 122.49 153.32 121.52 154.13 122.27"/><polyline class="cls-10" points="154.93 122.24 155.81 121.69 156.55 122.56"/><polyline class="cls-10" points="137.69 121.73 138.05 120.87 138.79 120.97"/><polyline class="cls-10" points="138.67 119.87 139.38 118.57 140.39 118.72"/><polyline class="cls-10" points="140.61 117.99 141.48 117.08 142.75 117.46"/><polyline class="cls-10" points="137.74 122.76 138.49 122.19 139.48 122.47"/><polyline class="cls-10" points="139.4 121.24 139.95 119.92 141.03 120.18"/><polyline class="cls-10" points="141.34 119.35 141.95 118.23 143.08 118.55"/><polyline class="cls-10" points="143.79 118.35 144.53 117.25 145.81 117.48"/><polyline class="cls-10" points="146.24 117.83 146.79 117.25 147.52 117.71"/><polyline class="cls-10" points="137.46 124.09 138.2 123.64 138.94 123.83"/><polyline class="cls-10" points="139.25 123.69 139.99 123.25 140.72 123.43"/><polyline class="cls-10" points="142.14 121.74 142.6 121.01 143.35 120.85"/><polyline class="cls-10" points="141.02 123.58 141.76 123.14 142.49 123.33"/><polyline class="cls-10" points="140.41 122.68 141.15 122.23 141.88 122.42"/><polyline class="cls-10" points="140.07 121.96 140.58 121.12 141.57 121.54"/><polyline class="cls-10" points="142.32 120.45 142.7 119.39 143.72 119.83"/><polyline class="cls-10" points="144.65 119.43 145.04 118.38 146.13 118.79"/><path class="cls-1" d="M36.13,119.73c.48,0,3.7.16,3.9.14L40,121.11c-.3-.07-4.34-.26-4.61-.27l-1,0c-.38,0-3-.14-3.26-.11a24.92,24.92,0,0,1,.26-2.64c.29-1.67,1.05-2.59,2.14-2.53a3.16,3.16,0,0,1,2.49,1.9c.45-.3,3.41-2.44,3.81-2.78l.73,1c-.19.13-4.1,2.8-4.65,3.16-.31-.66-1-2-2.27-2-.57,0-1.45.35-1.6,2.75Z"/><path class="cls-1" d="M37,110.93c1.27.17,3.54.43,3.83.45l-.16,1.23c-.55-.1-3.51-.5-3.84-.55l-1.37-.18c-.21,0-3.35-.4-3.65-.41l.16-1.27c.23.06,2.15.35,3.67.55Z"/><path class="cls-1" d="M34.57,98.79c.56.58,7,6,7.71,6.6v0c-.45.18-9,2.13-9.68,2.38l-.36-1.21c.61-.07,7.33-1.64,7.77-1.81-.25-.28-5.89-4.85-6.26-5.09Z"/><path class="cls-1" d="M44.87,95.18c-.06.2-1.37,3.81-1.45,4.06-.63-.25-3.23-1.09-3.51-1.18l-1.63-.53c-.19-.06-3.11-1-3.35-1,.09-.29,1-3.52,1-3.92l1,.26c-.13.39-.78,2.59-.84,2.79l3,1c.07-.22.51-1.8.63-2.42l1,.28c-.09.27-.75,2.14-.83,2.39l3,1c.1-.29.66-1.91.91-2.93Z"/><path class="cls-1" d="M42.58,90c.45.19,3.43,1.44,3.61,1.49l-.49,1.14c-.26-.17-4-1.75-4.23-1.86l-1-.41c-.35-.15-2.79-1.18-3-1.24a26.45,26.45,0,0,1,1.17-2.39c.86-1.46,1.89-2.06,2.89-1.63a3.19,3.19,0,0,1,1.68,2.66c.52-.12,4.05-1.1,4.54-1.28l.33,1.2c-.22.06-4.82,1.2-5.46,1.34-.06-.72-.27-2.2-1.42-2.7-.53-.23-1.48-.18-2.46,2Z"/><path class="cls-1" d="M48.45,84.87c.37-1.22.57-2.93-.33-3.43-.56-.3-1-.1-1.93.47-1,.67-1.87,1.08-2.66.64-1.19-.65-1.38-2.9-.89-4.63l1,.24c-.26.74-.65,2.69.29,3.2.58.32,1.37-.28,1.91-.6,1-.58,1.7-1.07,2.61-.57,1.1.6,1.66,2.42,1,4.85Z"/><path class="cls-1" d="M49.82,76.28c1.08.69,3,1.88,3.29,2l-.67,1c-.46-.33-3-1.94-3.26-2.12L48,76.5c-.19-.12-2.87-1.78-3.14-1.92l.68-1.08c.18.15,1.8,1.22,3.1,2Z"/><path class="cls-1" d="M50.53,72c-.21-.16-2.36-1.8-2.67-2A29,29,0,0,1,50,67.5c2.95-3,4.73-2.26,5.44-1.71,3.14,2.41,1.38,7.41-.4,9.71-.44-.39-2.93-2.35-3.2-2.56Zm4.32,1.87c1.88-2.95,1.46-5.78,0-6.87s-3.55,0-5.53,2.65Z"/><path class="cls-1" d="M64.34,64.57c-.13.15-2.87,2.85-3,3-.46-.49-2.45-2.36-2.66-2.57L57.4,63.86c-.15-.14-2.39-2.22-2.58-2.38.21-.22,2.38-2.76,2.62-3.09l.77.66c-.28.29-1.81,2-2,2.15l2.32,2.2c.16-.16,1.24-1.39,1.61-1.9l.76.66c-.19.21-1.6,1.62-1.77,1.8l2.26,2.14c.21-.22,1.41-1.44,2.07-2.25Z"/><path class="cls-1" d="M64.37,57.78l1.89-1.53,1.18-1,1.84-1.56.57.69c-.17.11-1.56,1.26-1.87,1.52l-1.18,1c-.15.13-1.42,1.17-1.86,1.58Z"/><path class="cls-1" d="M75.89,54c.91-.89,1.91-2.28,1.35-3.15-.35-.54-.87-.59-1.91-.52-1.23.1-2.15,0-2.64-.71-.73-1.13.19-3.19,1.44-4.47l.76.68c-.59.53-1.85,2-1.28,2.94.36.56,1.34.41,2,.39,1.12,0,2-.12,2.55.75.68,1.05.3,2.91-1.44,4.72Z"/><path class="cls-1" d="M80.38,51.38c.07-1.41.05-9.54.1-10.11l0,0c1.82,1.11,7.14,4.86,8.51,5.65L88.37,48c-.45-.32-2.84-2-3.06-2.15l-3.86,2.17c0,.29.16,3,.16,3.44Zm4.22-6.05c-.25-.19-3-2.13-3.21-2.25,0,.34.07,3.79.06,4Z"/><path class="cls-1" d="M90.45,46.82c-.26-.92-2.37-7.78-2.75-9h0c.47.26,8.45,4.2,9,4.45-.12-.34-2.09-6-2.22-6.42l1.14-.34c.21.74,1.75,5.73,2.79,8.77h0C98,44,89.63,40,89.29,39.79c.15.42,2.16,6.32,2.32,6.71Z"/><path class="cls-1" d="M103.93,36.29c-.07-.37-.49-2.48-.58-2.73a16.79,16.79,0,0,1,1.79-.26c2.58-.2,3.06.67,3.2,1.37a2.33,2.33,0,0,1-1.22,2.25v0a2.24,2.24,0,0,1,2.34,1.59c.28,1.49-1.35,3.29-4.36,3.86l-.1,0c-.06-.7-.77-4.49-.81-4.72Zm1.28.91c1.37-.3,2.13-1.31,2-2.15-.21-1.13-1.68-1-2.55-.9Zm.77,4.1c1.34-.4,2.46-1.28,2.24-2.46-.17-.88-1.31-1.3-2.87-.93Z"/><path class="cls-1" d="M116.82,40.8c-.2,0-4,.26-4.29.29,0-.68-.3-3.39-.33-3.69L112,35.7c0-.2-.35-3.25-.38-3.49.3,0,3.6-.52,4-.61l.15,1-2.89.35.31,3.19c.23,0,1.85-.25,2.47-.39l.13,1-2.52.2.31,3.1c.3,0,2-.16,3-.34Z"/><path class="cls-1" d="M120.6,36.64c0,.49.1,3.72.12,3.91l-1.23,0c0-.31,0-4.36,0-4.63v-1c0-.39-.08-3-.12-3.27a23.7,23.7,0,0,1,2.66.08c1.69.18,2.66.88,2.68,2a3.19,3.19,0,0,1-1.74,2.62c.32.43,2.67,3.24,3,3.62l-1,.79c-.14-.17-3.07-3.9-3.46-4.43.63-.35,1.9-1.15,1.88-2.4,0-.58-.45-1.43-2.86-1.42Z"/><path class="cls-1" d="M127.56,40.56c.17-.94,1.32-8,1.54-9.34h0c.31.44,5.73,7.53,6.09,8,0-.36.8-6.33.86-6.75l1.17.2c-.14.76-1,5.92-1.38,9.12h0c-.3-.38-6-7.7-6.2-8,0,.44-.85,6.64-.89,7.06Z"/><path class="cls-1" d="M137.6,41.35c1-1,6.26-7.18,6.67-7.58h0c.66,2,2.22,8.34,2.75,9.83l-1.22.44c-.14-.54-.82-3.4-.91-3.63l-4.34-.88c-.21.2-1.81,2.34-2.12,2.71Zm7.14-1.82c-.07-.31-.89-3.57-1-3.8-.25.23-2.42,2.92-2.58,3.09Z"/><path class="cls-1" d="M151.07,41.49c-.17.45-1.25,3.49-1.3,3.68l-1.15-.43c.15-.27,1.53-4.07,1.63-4.32l.36-1c.13-.36,1-2.84,1.08-3.08a22.18,22.18,0,0,1,2.44,1c1.51.78,2.15,1.78,1.78,2.79A3.16,3.16,0,0,1,153.34,42c.15.52,1.31,4,1.52,4.47l-1.18.39c-.07-.21-1.45-4.74-1.63-5.38.72-.1,2.19-.38,2.62-1.55.2-.54.11-1.49-2.14-2.35Z"/><path class="cls-1" d="M159,42.78c.12-.23,1.33-2.65,1.44-3a29.83,29.83,0,0,1,2.86,1.58c3.48,2.35,3.1,4.23,2.7,5-1.79,3.54-7,2.74-9.63,1.43.31-.5,1.76-3.32,1.92-3.63Zm-1,4.6c3.26,1.3,5.95.35,6.76-1.24.87-1.74-.66-3.49-3.63-5Z"/><path class="cls-1" d="M168.36,49.91c-.67,1.09-1.85,3.05-2,3.3l-1.05-.65c.32-.47,1.9-3,2.08-3.27l.73-1.17c.11-.19,1.74-2.88,1.88-3.15l1.09.67c-.15.18-1.2,1.81-2,3.11Z"/><path class="cls-1" d="M169,54.78c.63-.72,5.26-6.2,6.11-7.2h0c0,.55,1,9.39,1.11,10,.22-.28,3.93-5,4.19-5.33l.91.77c-.51.58-3.87,4.57-5.86,7.09l0,0c-.07-.48-1.17-9.65-1.18-10.06-.27.35-4.14,5.24-4.39,5.58Z"/><path class="cls-1" d="M180,58.32a5,5,0,0,1,7.23-.07,4.06,4.06,0,0,1-.06,6.08,4.85,4.85,0,0,1-7,.06A4.11,4.11,0,0,1,180,58.32Zm6.25,5.19a3.17,3.17,0,0,0,.18-4.71,3.71,3.71,0,0,0-5.43.25,3.24,3.24,0,0,0-.12,4.75A3.67,3.67,0,0,0,186.25,63.51Z"/><path class="cls-1" d="M191,77.18a10.79,10.79,0,0,1-1.13-1.32c-2.57-3.51-1.12-5.92-.17-6.62,1.69-1.24,5-1.26,8.29,1.89l-.75.79c-2-2.16-4.83-3.07-6.6-1.77-1.26.92-1.71,2.78.09,5.24a6.61,6.61,0,0,0,1,1.08Z"/><path class="cls-1" d="M194.93,75.67a5,5,0,0,1,7,1.84,4,4,0,0,1-1.65,5.85,4.86,4.86,0,0,1-6.8-1.8A4.12,4.12,0,0,1,194.93,75.67Zm4.67,6.65A3.16,3.16,0,0,0,201,77.83a3.71,3.71,0,0,0-5.3-1.19,3.25,3.25,0,0,0-1.37,4.55A3.67,3.67,0,0,0,199.6,82.32Z"/><path class="cls-1" d="M202.71,86c-1.9.8-2.74,1.25-3.35,2.06a2.37,2.37,0,0,0-.28,2.51,2.51,2.51,0,0,0,2,1.58c1.12.19,2.56-.41,4.41-1.19l.41-.18c.81-.34,1.49-.68,1.91-.89l.48,1.12-2,.84-.55.23c-2.25,1-3.74,1.44-5.21,1a3.67,3.67,0,0,1-2.44-2.29,3.33,3.33,0,0,1,.23-3.34c.65-.92,1.49-1.51,4.34-2.72l.64-.27,1.67-.7.48,1.12a20.85,20.85,0,0,0-2,.76Z"/><path class="cls-1" d="M200.71,96.75c.94-.19,7.95-1.76,9.23-2v0c-.3.46-4.85,8.12-5.14,8.62l6.57-1.72.26,1.16c-.75.16-5.85,1.31-9,2.11v0c.24-.42,4.91-8.41,5.15-8.74-.43.12-6.47,1.68-6.88,1.8Z"/><path class="cls-1" d="M203.77,109.63c.34,0,4-.54,6-.85l1.88-.29c-.22-1.45-.56-3.23-.66-3.55l1.07-.17c0,.52.39,3.52.41,3.66l.17,1.1c0,.24.51,3,.7,3.52l-1.07.16c0-.18-.28-2.52-.44-3.59l-2.08.33c-2.57.39-5.55,1-5.8,1Z"/><path class="cls-1" d="M204.69,118l1.82,0,1,0a5.92,5.92,0,0,0,3.86-1.85,5.57,5.57,0,0,0,1.32-2l1,.47a8.26,8.26,0,0,1-1.39,2.07,7.53,7.53,0,0,1-2.65,1.8v0a7.26,7.26,0,0,1,2.65,1.41,6.76,6.76,0,0,1,1.79,2.36l-1,.43a5.36,5.36,0,0,0-1.78-2.35,5.86,5.86,0,0,0-3.78-1.27l-1.2.07c-.17,0-1.31.1-1.56.14Z"/><path class="cls-1" d="M44.36,160.31c-1.51.69-4.19,2-4.53,2.13L39.16,161c.68-.27,4.22-1.85,4.62-2l1.63-.74c.25-.12,4-1.86,4.31-2l.69,1.51c-.29.09-2.6,1.09-4.42,1.91Z"/><path class="cls-1" d="M42.52,168.12c1.09-.6,9.19-5.24,10.68-6.09v0c-.19.68-2.91,11.93-3.07,12.66.39-.25,7-4.36,7.5-4.64l.76,1.34c-.88.48-6.77,3.86-10.32,6.05l0,0c.14-.62,2.88-12.32,3-12.83-.49.31-7.4,4.56-7.85,4.87Z"/><path class="cls-1" d="M58.11,177.9c.25-.23,2.81-2.63,3.1-3A37,37,0,0,1,64,178.12c3.18,4.42,1.87,6.54,1,7.33-3.76,3.51-9.78.17-12.36-2.6.61-.47,3.64-3.24,4-3.55ZM54.79,183c3.37,3,7.08,3.11,8.78,1.53s.76-4.54-2.2-7.65Z"/><path class="cls-1" d="M68.08,190.8c-1.06,1.27-2.92,3.59-3.15,3.89l-1.23-1c.49-.54,3-3.52,3.25-3.85l1.15-1.38c.18-.22,2.76-3.41,3-3.74l1.28,1.06c-.21.21-1.86,2.12-3.13,3.65Z"/><path class="cls-1" d="M68.67,197.17c1.63-.85,10.71-6.26,11.38-6.58l0,0c0,2.77-.71,11.2-.68,13.26l-1.69,0c.06-.71.39-4.53.38-4.85l-5-2.88c-.34.16-3.2,2.14-3.74,2.46Zm9.57.72c0-.41.38-4.76.38-5.08-.4.18-4.19,2.59-4.46,2.74Z"/><path class="cls-1" d="M83.16,206.45c.54-1.12,4.43-9.6,5.15-11.15h0c.23.66,4.56,11.4,4.85,12.09.18-.43,3.19-7.64,3.41-8.14l1.4.65c-.44.9-3.26,7.07-4.88,10.92h0c-.25-.58-4.82-11.7-5-12.21-.22.54-3.37,8-3.56,8.53Z"/><path class="cls-1" d="M106.33,213.87c.12-.72.59-4.57.64-5l.21-1.78c0-.28.46-4.36.48-4.76l1.64.2c-.06.29-.51,3.65-.55,3.94l-.15,1.29,7.39.55.15-1.31c0-.29.35-3.25.36-3.62l1.68.2c-.09.39-.7,4.83-.75,5.22l-.19,1.65c0,.21-.48,4.33-.49,4.65l-1.64-.19c.11-.56.51-3.48.55-3.8l.2-1.71-7.39-.56-.12,1.06c-.09.74-.4,3.78-.43,4.16Z"/><path class="cls-1" d="M129.28,215.09c-.27,0-5.27,0-5.6.06,0-.88-.13-4.43-.14-4.81l-.09-2.22c0-.27-.2-4.25-.23-4.57.4,0,4.72-.4,5.25-.49l.12,1.31c-.54,0-3.52.23-3.78.24l.16,4.16c.3,0,2.42-.18,3.23-.31l.1,1.31-3.28.06.16,4c.39,0,2.62-.06,4-.21Z"/><path class="cls-1" d="M132.92,214.2c.61-1.73,3.58-11.87,3.86-12.57h0c1.87,2.05,7.11,8.69,8.53,10.18L144.12,213c-.44-.56-2.79-3.58-3-3.81l-5.62,1.28c-.14.35-.89,3.75-1.06,4.35Zm7.5-6c-.25-.33-3-3.76-3.17-4-.18.41-1.31,4.75-1.41,5Z"/><path class="cls-1" d="M147.77,199.4c.06.37,1,3.48,1.72,5.46L151,209.3c.37-.13,2.22-.76,3.71-1.33l.46,1.35c-.22.07-4.94,1.5-5.33,1.63-.16-.87-1.3-4.23-1.43-4.61l-.7-2.08c-.09-.25-1.41-4-1.54-4.31Z"/><path class="cls-1" d="M161.54,206.32c-.11-.43-2.22-4.79-3.38-7.16l-1.08-2.22c-1.72.83-3.8,1.94-4.16,2.19l-.62-1.27c.66-.17,4.22-1.83,4.38-1.91l1.3-.64c.29-.13,3.51-1.78,4.11-2.22l.61,1.27c-.23,0-3,1.31-4.28,1.92l1.2,2.46c1.48,3,3.36,6.51,3.54,6.79Z"/><path class="cls-1" d="M171.05,201.23c-.4-.61-2.64-3.77-2.89-4.12l-1-1.46c-.16-.23-2.59-3.53-2.84-3.83l1.34-1c.15.27,2.08,3,2.25,3.29l.76,1.05,5.82-4.57-.77-1.07c-.16-.23-1.93-2.64-2.17-2.92l1.38-1c.19.35,2.73,4,3,4.36l1,1.35c.13.17,2.57,3.52,2.78,3.76l-1.34,1c-.29-.49-2-2.92-2.16-3.18l-1-1.4-5.83,4.57.62.86c.44.61,2.25,3.06,2.49,3.36Z"/><path class="cls-1" d="M186.49,181.49c1.22,1.11,3.45,3.08,3.75,3.32L189.15,186c-.52-.51-3.37-3.14-3.69-3.43l-1.33-1.21c-.21-.19-3.27-2.91-3.59-3.16l1.12-1.22c.2.22,2,2,3.5,3.3Z"/><path class="cls-1" d="M194.38,180.12c-1-.78-8.43-6.42-9.79-7.46l0,0c.7-.09,12.14-2,12.87-2.14-.38-.26-6.78-4.76-7.22-5.09l.94-1.23c.78.62,6.21,4.72,9.63,7.14l0,0c-.62.12-12.49,2.18-13,2.22.48.33,7.11,5,7.57,5.32Z"/><path class="cls-1" d="M207.12,158.11a12.25,12.25,0,0,1-.8,2.11c-2.39,5.13-6,5-7.43,4.33-2.47-1.15-4.55-4.88-3-10.63l1.37.36c-1.21,3.63-.48,7.43,2.11,8.63,1.83.86,4.23.22,5.91-3.37a9,9,0,0,0,.6-1.84Z"/><path class="cls-1" d="M206.44,154.05l.61-1.76,1.74.6-.61,1.76Z"/><circle class="cls-1" cx="38.04" cy="137.89" r="1.65"/><circle class="cls-1" cx="207.13" cy="137.72" r="1.65"/></g></g></svg>