<?xml version="1.0" encoding="utf-8"?>
<!-- Generator: Adobe Illustrator 25.2.3, SVG Export Plug-In . SVG Version: 6.00 Build 0)  -->
<svg version="1.1" id="Layer_1" focusable="false" xmlns="http://www.w3.org/2000/svg" xmlns:xlink="http://www.w3.org/1999/xlink"
	 x="0px" y="0px" viewBox="0 0 446 440" style="enable-background:new 0 0 446 440;" xml:space="preserve">
<style type="text/css">
	.st0{fill:#FFFFFF;}
</style>
<g>
	<path class="st0" d="M326.4,230.8V127.9c0-9.4-3.8-18.5-10.4-25.1l-62.1-62.1c-6.6-6.6-15.7-10.4-25.1-10.4h-151
		c-19.6,0-35.5,15.9-35.5,35.5v307.8c0,19.6,15.9,35.5,35.5,35.5h213.1c19.6,0,35.5-15.9,35.5-35.5v-66.4c0-5.2-4.2-9.4-9.4-9.4
		h-16.6c-5.2,0-9.4,4.2-9.4,9.4v66.4H77.8V65.8h118.4v76.9c0,9.8,7.9,17.8,17.8,17.8h76.9v70.3H326.4z M231.7,125V68.7L288,125
		H231.7z"/>
	<path class="st0" d="M401,222.4l-33.3-33.3c-5.8-5.8-15.8-1.7-15.8,6.6l0,0v17.8H132.4c-2.3,0-4.1,1.9-4.1,4.1v22.6
		c0,2.3,1.9,4.1,4.1,4.1h219.5v17.8c0,8.3,10,12.4,15.8,6.6l33.3-33.3C404.7,231.9,404.7,226,401,222.4z"/>
</g>
</svg>
