<svg xmlns="http://www.w3.org/2000/svg" viewBox="0 0 31.23 31.23"><defs><style>.cls-1,.cls-3,.cls-4{fill:none;}.cls-2{fill:#6d7aa3;}.cls-3,.cls-4{stroke:#2e2e42;stroke-miterlimit:10;}.cls-4{stroke-linecap:round;}</style></defs><g id="Layer_2" data-name="Layer 2"><g id="Layer_2-2" data-name="Layer 2"><rect class="cls-1" width="31.23" height="31.23" rx="1.97"/><path class="cls-2" d="M10.88,14.65c0,4.93-1.49,9.12-3.58,10.69H5.13a1.51,1.51,0,0,1-1.51-1.5V6A1.51,1.51,0,0,1,5.13,4.52H7.92C9.68,6.39,10.88,10.22,10.88,14.65Z"/><circle class="cls-3" cx="12.27" cy="9.16" r="2.14"/><path class="cls-4" d="M8.63,14.23c0-2,1.63-2.73,3.64-2.73s3.64.59,3.64,2.6"/><path class="cls-3" d="M20.92,13.85V6a1.51,1.51,0,0,0-1.51-1.51H5.13A1.51,1.51,0,0,0,3.62,6V23.84a1.51,1.51,0,0,0,1.51,1.5h9.6"/><path class="cls-4" d="M23.43,24.78a6.57,6.57,0,0,1-4.67,1.93,6.34,6.34,0,0,1-2.19-.38,6.61,6.61,0,1,1,8.81-6.23"/><line class="cls-4" x1="20.72" y1="17.2" x2="18.82" y2="20.58"/><line class="cls-4" x1="16.29" y1="20.65" x2="18.77" y2="20.65"/><path class="cls-2" d="M23.14,20.33l2,2.05a.24.24,0,0,0,.33,0l2-2.05a.23.23,0,0,0-.17-.39H23.3A.23.23,0,0,0,23.14,20.33Z"/></g></g></svg>