<svg xmlns="http://www.w3.org/2000/svg" viewBox="0 0 31.23 31.23"><defs><style>.cls-1,.cls-5{fill:none;}.cls-2{fill:#ef7753;}.cls-3{fill:#2e2e42;}.cls-4{fill:#0d0d0d;}.cls-5{stroke:#2e2e42;stroke-miterlimit:10;}</style></defs><g id="Layer_2" data-name="Layer 2"><g id="Layer_2-2" data-name="Layer 2"><rect class="cls-1" width="31.23" height="31.23" rx="1.97"/><path class="cls-2" d="M15.61,17.16c6.48,0,11.74,2.51,11.74,5.61A2.87,2.87,0,0,1,27,24.13a5.41,5.41,0,0,1-2.49.53H6.71a5.36,5.36,0,0,1-2.48-.53,2.87,2.87,0,0,1-.35-1.36C3.88,19.67,9.14,17.16,15.61,17.16Z"/><path class="cls-3" d="M19.39,20.82a.83.83,0,0,1-.2.55.77.77,0,0,1-.57.24h0A.74.74,0,0,1,18,21.3l-2.37-2.85-.07-.08-2.31,2.89a.81.81,0,0,1-.62.35h0a.71.71,0,0,1-.54-.22.85.85,0,0,1,0-1.06l1.07-1.26,1.6-1.89h0v0l-2.38-2.9a.35.35,0,0,1-.08-.16.14.14,0,0,1,0-.06,3.25,3.25,0,0,1,.15-1.34,2.53,2.53,0,0,1,.2-.48s.05,0,.07,0l.49.58.12.14,2.41,3,3-3.7a0,0,0,0,1,.08,0A3.05,3.05,0,0,1,19.05,14a.33.33,0,0,1-.05.12l-2.49,2.92h0l.07.08,1.59,1.91,1,1.24A.72.72,0,0,1,19.39,20.82Z"/><path class="cls-3" d="M15.61,14.39l-.13-.22-.1-.08-.73-.89a9.67,9.67,0,0,0-.46-1h3.13l-1.69,2.24Z"/><path class="cls-2" d="M15.63,14.43a4.56,4.56,0,0,1,1.5-3.87s-1.75-.79-2.67-.12c-.31.22-.72.46-.26,2.13l.46.64.73.89.16.23Z"/><path class="cls-3" d="M15.63,14.44a8.09,8.09,0,0,1-.46-3,7.52,7.52,0,0,1,.46-2.68,5.62,5.62,0,0,0-2.49,2.5.06.06,0,0,0,0,.07Z"/><path class="cls-4" d="M15.62,15.92l.7.9.14-.16a1.14,1.14,0,0,0,0-1.5L16.33,15Z"/><path class="cls-5" d="M27.63,8.9V22.32a2.48,2.48,0,0,1-2.42,2.54H6a2.36,2.36,0,0,1-1.62-.66,2.6,2.6,0,0,1-.79-1.88V8.9A2.59,2.59,0,0,1,4.38,7,2.36,2.36,0,0,1,6,6.37H25.21A2.47,2.47,0,0,1,27.63,8.9Z"/></g></g></svg>