<svg xmlns="http://www.w3.org/2000/svg" viewBox="0 0 31.23 31.23"><defs><style>.cls-1,.cls-2,.cls-3{fill:none;}.cls-2,.cls-3{stroke:#2e2e42;stroke-miterlimit:10;}.cls-2{stroke-linecap:round;}.cls-4{fill:#85ccad;}</style></defs><g id="Layer_2" data-name="Layer 2"><g id="Layer_2-2" data-name="Layer 2"><rect class="cls-1" width="31.23" height="31.23" rx="1.97"/><path class="cls-2" d="M11.33,21.4H5a2.5,2.5,0,0,1-2.2-2.72V7.93A2.52,2.52,0,0,1,5,5.19H18.4c1.22,0,2.2,0,2.2,1.56"/><circle class="cls-3" cx="7.78" cy="12.21" r="1.6"/><path class="cls-2" d="M5.06,16c0-1.5,1.21-2,2.72-2s2.71.53,2.71,2"/><path class="cls-4" d="M19.77,16.07c0,4-2,6.93-4.43,6.93a2.87,2.87,0,0,1-2-.5V9.33a2.8,2.8,0,0,1,2-.47c2.22,0,4.06,2.66,4.37,6.14A9.46,9.46,0,0,1,19.77,16.07Z"/><path class="cls-3" d="M25.55,11.56h2.12a.81.81,0,0,1,.81.81V25.22a.81.81,0,0,1-.81.81H17.08a.82.82,0,0,1-.82-.81v-2"/><path class="cls-3" d="M25.55,9.54V22.38a.82.82,0,0,1-.82.82H14.14a.82.82,0,0,1-.81-.82V9.54a.81.81,0,0,1,.81-.81H24.73A.82.82,0,0,1,25.55,9.54Z"/><line class="cls-2" x1="19.48" y1="13.37" x2="21.65" y2="15.55"/><line class="cls-2" x1="17.22" y1="15.55" x2="19.4" y2="13.37"/><line class="cls-2" x1="19.44" y1="13.45" x2="19.44" y2="18.56"/></g></g></svg>