<?xml version="1.0" standalone="no"?>
<!DOCTYPE svg PUBLIC "-//W3C//DTD SVG 20010904//EN"
 "http://www.w3.org/TR/2001/REC-SVG-20010904/DTD/svg10.dtd">
<svg version="1.0" xmlns="http://www.w3.org/2000/svg"
 width="286.000000pt" height="286.000000pt" viewBox="0 0 286.000000 286.000000"
 preserveAspectRatio="xMidYMid meet">
<metadata>
Created by potrace 1.11, written by Peter Selinger 2001-2013
</metadata>
<g transform="translate(0.000000,286.000000) scale(0.100000,-0.100000)"
fill="#000000" stroke="none">
<path d="M131 2828 c13 -18 116 -161 229 -318 113 -157 289 -400 390 -540 102
-140 188 -259 193 -265 12 -15 349 -483 442 -613 44 -62 104 -145 134 -185 82
-112 334 -458 351 -484 8 -12 75 -105 149 -206 l134 -184 329 0 c180 0 328 2
328 4 0 3 -385 538 -460 638 -66 89 -376 519 -394 547 l-17 27 103 138 c57 76
105 140 108 143 3 3 80 104 170 225 91 121 168 222 171 225 9 8 239 316 239
321 0 6 -618 5 -623 -1 -2 -3 -33 -43 -68 -90 -35 -47 -68 -90 -74 -96 -5 -7
-82 -107 -170 -222 -88 -116 -163 -211 -166 -211 -3 -1 -23 24 -45 55 -21 30
-44 61 -49 67 -6 7 -51 68 -100 137 -50 69 -95 132 -102 140 -7 8 -52 71 -102
140 -50 69 -173 240 -274 380 l-184 255 -332 3 -333 2 23 -32z"/>
<path d="M892 2828 c35 -46 339 -463 363 -498 27 -38 217 -302 227 -315 37
-47 90 -120 123 -168 47 -70 59 -79 51 -41 -15 67 -14 72 2 79 15 6 15 8 -2
21 -20 14 -20 14 0 15 15 0 16 2 4 7 -8 4 -16 15 -16 25 -2 20 12 23 19 5 4
-10 6 -10 6 -1 1 6 -9 19 -21 29 -15 11 -17 14 -6 11 10 -4 20 -2 23 3 4 6 1
10 -4 10 -19 0 -12 16 12 29 18 9 19 10 2 6 -14 -3 -25 2 -34 18 -13 20 -13
21 2 8 10 -7 17 -12 18 -10 7 37 6 66 -1 80 -8 14 -6 16 13 13 12 -2 16 -1 9
2 -10 5 -10 9 0 22 8 9 8 13 2 9 -7 -4 -14 0 -18 8 -3 8 -2 14 2 14 4 -1 14
-1 22 0 13 1 13 2 0 11 -13 9 -13 10 0 10 10 1 5 10 -15 27 -29 25 -29 25 -2
9 24 -14 27 -15 27 -1 0 8 8 15 18 16 13 0 12 2 -5 9 -13 5 -23 15 -23 22 0 8
3 9 8 3 4 -5 13 -11 21 -13 12 -3 12 -1 0 14 -12 16 -12 17 2 12 12 -5 15 -1
11 18 -3 15 0 24 8 24 7 0 10 7 6 15 -3 8 -1 15 5 15 5 0 15 14 21 31 7 22 15
29 26 24 9 -3 3 7 -13 24 -22 21 -33 26 -42 19 -7 -6 -10 -15 -6 -21 3 -6 1
-7 -5 -3 -18 11 -14 -5 5 -19 13 -9 13 -14 3 -20 -9 -6 -11 -4 -5 5 6 9 4 12
-7 8 -23 -9 -18 23 8 54 16 20 24 24 27 13 4 -8 15 -12 29 -9 20 4 20 3 4 -4
-12 -5 -16 -11 -9 -15 6 -4 24 10 39 31 40 52 112 120 120 113 4 -3 4 0 0 7
-4 7 -2 12 6 12 8 0 22 6 32 13 15 11 12 12 -23 9 -27 -3 -39 -8 -34 -16 3 -6
-3 -2 -15 8 -19 17 -22 17 -22 3 0 -10 4 -17 9 -17 5 0 12 -8 15 -17 6 -16 5
-16 -12 0 -18 17 -20 17 -35 -7 -9 -14 -28 -36 -43 -51 -22 -22 -24 -28 -12
-43 12 -15 11 -16 -4 -3 -10 7 -18 16 -18 20 0 3 21 28 45 55 25 27 45 52 45
57 0 4 -20 7 -45 7 -32 0 -45 -4 -45 -14 0 -16 16 -19 23 -4 3 6 4 5 3 -2 -4
-21 -27 -21 -33 1 -3 13 -13 21 -25 21 -18 0 -17 -3 10 -31 28 -29 32 -30 51
-17 12 8 18 17 16 20 -3 3 1 8 10 11 22 9 19 2 -14 -32 l-29 -30 -40 40 c-22
21 -46 39 -54 39 -7 -1 3 -15 22 -32 19 -16 26 -26 15 -20 -11 6 -30 20 -42
31 -12 12 -27 21 -33 21 -21 0 -9 -16 30 -40 22 -14 40 -29 40 -34 0 -5 -8 -2
-18 7 -26 24 -39 21 -17 -3 17 -19 17 -21 0 -40 -17 -19 -17 -19 19 -15 34 5
35 4 18 -13 -15 -16 -20 -17 -39 -4 -12 7 -19 20 -16 28 3 8 0 14 -6 14 -6 0
-11 -4 -11 -9 0 -5 -8 -12 -17 -15 -15 -6 -15 -5 1 13 17 18 17 20 -1 30 -10
6 -14 11 -10 11 4 0 19 -7 33 -16 27 -19 44 -12 22 8 -13 13 -28 18 -58 22
-28 4 -50 18 -44 28 3 5 12 1 19 -9 7 -10 16 -15 19 -12 4 3 -3 17 -14 31
l-19 25 27 52 c14 29 42 70 60 92 l34 39 -427 0 -427 0 24 -32z m983 -236
c-15 -16 -16 -15 -4 12 7 15 15 23 17 16 3 -7 -3 -19 -13 -28z m-251 -3 c-2
-4 4 -10 13 -13 10 -2 3 -3 -15 -1 -25 3 -32 0 -28 -10 3 -9 0 -12 -10 -8 -10
4 -12 9 -4 18 5 6 6 16 2 21 -4 4 1 2 11 -5 20 -15 23 -2 5 18 -11 11 -9 11 9
0 12 -7 20 -16 17 -20z m155 2 c15 -10 7 -31 -12 -31 -7 0 -6 4 3 10 13 9 7
14 -12 11 -5 0 -8 4 -8 9 0 12 10 13 29 1z m-34 -21 c3 -5 1 -10 -4 -10 -6 0
-11 5 -11 10 0 6 2 10 4 10 3 0 8 -4 11 -10z m95 -10 c-6 -11 -13 -20 -16 -20
-2 0 0 9 6 20 6 11 13 20 16 20 2 0 0 -9 -6 -20z m-222 -25 c-6 -14 -15 -25
-20 -25 -4 0 -8 -5 -8 -11 0 -5 5 -7 10 -4 6 3 10 1 10 -5 0 -6 6 -8 13 -4 6
4 9 3 4 -1 -13 -15 -47 -12 -60 4 -8 10 -8 13 0 8 7 -4 14 1 18 13 3 11 11 20
16 20 5 0 9 7 9 15 0 8 4 15 10 15 6 0 5 -10 -2 -25z m-46 -17 c-8 -8 -9 -4
-5 13 4 13 8 18 11 10 2 -7 -1 -18 -6 -23z m212 17 c3 -8 1 -15 -4 -15 -6 0
-10 7 -10 15 0 8 2 15 4 15 2 0 6 -7 10 -15z m-74 -33 c5 -4 -21 -22 -32 -22
-5 0 -8 5 -8 11 0 5 5 7 10 4 6 -3 10 -1 10 4 0 6 -4 11 -9 11 -5 0 -12 8 -15
17 -6 14 -4 14 16 -2 13 -11 25 -21 28 -23z m-54 0 c1 -12 -2 -19 -7 -16 -4 2
-5 12 -2 22 6 15 5 15 -10 3 -15 -12 -17 -12 -11 3 9 23 29 15 30 -12z m108
-28 c3 -8 2 -12 -4 -9 -6 3 -10 10 -10 16 0 14 7 11 14 -7z m-109 -33 c-6 -5
-25 10 -25 20 0 5 6 4 14 -3 8 -7 12 -15 11 -17z m-75 5 c0 -2 -7 -7 -16 -10
-8 -3 -12 -2 -9 4 6 10 25 14 25 6z m47 -11 c5 -4 2 -5 -6 0 -11 6 -13 4 -8
-8 9 -23 0 -21 -13 2 -7 15 -7 19 5 17 8 -1 18 -6 22 -11z m-37 -9 c0 -2 -7
-7 -16 -10 -8 -3 -12 -2 -9 4 6 10 25 14 25 6z m63 -14 c-10 -10 -20 -17 -22
-16 -6 5 20 34 30 34 5 0 1 -8 -8 -18z m57 8 c0 -5 -4 -10 -10 -10 -5 0 -10 5
-10 10 0 6 5 10 10 10 6 0 10 -4 10 -10z m-123 -17 c-4 -3 1 -12 11 -20 15
-13 15 -13 -6 -3 -19 9 -23 30 -5 30 4 0 3 -3 0 -7z m77 -5 c-5 -8 -2 -9 11
-4 15 5 16 4 5 -9 -10 -12 -15 -13 -21 -3 -7 12 -3 28 7 28 3 0 2 -5 -2 -12z
m54 -22 c-10 -7 -14 -17 -10 -21 4 -5 1 -5 -7 0 -12 7 -11 10 4 22 24 17 36
17 13 -1z m-38 -31 c5 3 11 1 14 -4 4 -5 -2 -8 -11 -7 -9 2 -18 8 -19 15 -1 6
0 7 3 1 2 -5 9 -8 13 -5z m-30 1 c0 -2 -7 -7 -16 -10 -8 -3 -12 -2 -9 4 6 10
25 14 25 6z m-73 -22 c-3 -3 -12 -4 -19 -1 -8 3 -5 6 6 6 11 1 17 -2 13 -5z
m75 -18 c7 4 8 2 4 -5 -4 -6 -12 -9 -17 -6 -5 4 -9 1 -9 -6 0 -7 -2 -10 -5 -7
-3 3 -2 13 2 24 4 11 8 13 11 6 2 -7 9 -9 14 -6z m-62 0 c0 -2 -7 -7 -16 -10
-8 -3 -12 -2 -9 4 6 10 25 14 25 6z m-6 -28 c-5 -8 -1 -9 12 -4 14 5 16 4 7
-5 -13 -13 -37 -3 -28 12 4 5 8 9 11 9 3 0 2 -5 -2 -12z m47 -40 c-10 -11 -11
-9 -5 6 6 15 4 17 -6 11 -9 -6 -11 -4 -5 4 5 9 10 10 18 2 8 -8 7 -14 -2 -23z
m-27 -20 c-3 -4 0 -8 7 -8 7 0 9 -3 6 -6 -4 -4 -13 -2 -20 4 -8 7 -17 9 -20 5
-4 -3 -7 -1 -7 5 0 6 9 10 19 9 11 0 17 -5 15 -9z m56 2 c-8 -5 -19 -10 -25
-10 -5 0 -3 5 5 10 8 5 20 10 25 10 6 0 3 -5 -5 -10z m-86 -36 c3 -8 2 -12 -4
-9 -6 3 -10 10 -10 16 0 14 7 11 14 -7z m74 -14 c-7 -10 -14 -17 -17 -15 -4 4
18 35 25 35 2 0 -1 -9 -8 -20z m-34 -22 c4 3 4 -1 0 -11 -3 -9 -11 -17 -17
-17 -6 0 -7 3 -4 7 4 3 -1 12 -11 20 -15 13 -15 13 4 4 12 -6 24 -7 28 -3z
m-24 -42 c0 -3 -4 -8 -10 -11 -5 -3 -10 -1 -10 4 0 6 5 11 10 11 6 0 10 -2 10
-4z m54 -7 c3 -3 -4 -5 -14 -6 -11 -1 -20 2 -20 7 0 8 25 8 34 -1z m-38 -54
c-1 -8 -5 -17 -8 -21 -5 -4 -4 16 1 34 3 9 9 -1 7 -13z m29 -25 c-3 -5 -12
-10 -18 -10 -7 0 -6 4 3 10 19 12 23 12 15 0z"/>
<path d="M1637 2646 c10 -13 21 -22 26 -19 4 2 7 -1 7 -7 0 -6 5 -8 10 -5 7 4
1 16 -15 31 -34 31 -51 31 -28 0z"/>
<path d="M1974 2466 c1 -8 5 -18 8 -22 4 -3 5 1 4 10 -1 8 -5 18 -8 22 -4 3
-5 -1 -4 -10z"/>
<path d="M1790 2426 c0 -2 7 -7 16 -10 8 -3 12 -2 9 4 -6 10 -25 14 -25 6z"/>
<path d="M1930 2381 c0 -6 4 -13 10 -16 6 -3 7 1 4 9 -7 18 -14 21 -14 7z"/>
<path d="M1830 2336 c7 -7 13 -7 20 0 6 6 3 10 -10 10 -13 0 -16 -4 -10 -10z"/>
<path d="M1930 2340 c0 -5 5 -10 11 -10 5 0 7 5 4 10 -3 6 -8 10 -11 10 -2 0
-4 -4 -4 -10z"/>
<path d="M1835 2300 c3 -5 8 -10 11 -10 2 0 4 5 4 10 0 6 -5 10 -11 10 -5 0
-7 -4 -4 -10z"/>
<path d="M1719 2213 c-13 -16 -12 -17 4 -4 9 7 17 15 17 17 0 8 -8 3 -21 -13z"/>
<path d="M1750 2221 c0 -6 4 -12 8 -15 5 -3 9 1 9 9 0 8 -4 15 -9 15 -4 0 -8
-4 -8 -9z"/>
<path d="M1746 2182 c-3 -5 1 -9 9 -9 8 0 12 4 9 9 -3 4 -7 8 -9 8 -2 0 -6 -4
-9 -8z"/>
<path d="M1789 2177 c6 -8 7 -18 3 -22 -4 -5 -1 -5 6 -1 10 6 10 11 1 22 -6 8
-14 14 -16 14 -3 0 0 -6 6 -13z"/>
<path d="M1696 1978 c3 -5 10 -6 15 -3 13 9 11 12 -6 12 -8 0 -12 -4 -9 -9z"/>
<path d="M1656 1862 c-2 -4 -1 -14 4 -22 7 -11 9 -9 7 8 -1 24 -3 26 -11 14z"/>
<path d="M1208 1131 c-1 -4 -15 -23 -30 -42 -84 -105 -796 -1036 -799 -1044
-4 -10 624 -15 641 -5 7 4 27 30 119 150 50 66 231 305 295 390 39 52 77 101
84 108 6 7 12 18 12 23 0 5 -46 72 -102 150 -110 151 -159 220 -185 257 -16
23 -29 28 -35 13z"/>
</g>
</svg>
